<svg width="18" height="18" viewBox="0 0 18 18" fill="none" xmlns="http://www.w3.org/2000/svg">
<g clip-path="url(#clip0_211_398)">
<path d="M8.8125 8.25C8.96168 8.25 9.10476 8.30926 9.21025 8.41475C9.31574 8.52024 9.375 8.66332 9.375 8.8125V10.5H11.0625C11.2117 10.5 11.3548 10.5593 11.4602 10.6648C11.5657 10.7702 11.625 10.9133 11.625 11.0625C11.625 11.2117 11.5657 11.3548 11.4602 11.4602C11.3548 11.5657 11.2117 11.625 11.0625 11.625H9.375V13.3125C9.375 13.4617 9.31574 13.6048 9.21025 13.7102C9.10476 13.8157 8.96168 13.875 8.8125 13.875C8.66332 13.875 8.52024 13.8157 8.41475 13.7102C8.30926 13.6048 8.25 13.4617 8.25 13.3125V11.625H6.5625C6.41332 11.625 6.27024 11.5657 6.16475 11.4602C6.05926 11.3548 6 11.2117 6 11.0625C6 10.9133 6.05926 10.7702 6.16475 10.6648C6.27024 10.5593 6.41332 10.5 6.5625 10.5H8.25V8.8125C8.25 8.66332 8.30926 8.52024 8.41475 8.41475C8.52024 8.30926 8.66332 8.25 8.8125 8.25Z" fill="#676767"/>
<path d="M3.9375 0C4.08668 0 4.22976 0.0592632 4.33525 0.164752C4.44074 0.270242 4.5 0.413316 4.5 0.5625V1.125H13.5V0.5625C13.5 0.413316 13.5593 0.270242 13.6648 0.164752C13.7702 0.0592632 13.9133 0 14.0625 0C14.2117 0 14.3548 0.0592632 14.4602 0.164752C14.5657 0.270242 14.625 0.413316 14.625 0.5625V1.125H15.75C16.3467 1.125 16.919 1.36205 17.341 1.78401C17.7629 2.20597 18 2.77826 18 3.375V15.75C18 16.3467 17.7629 16.919 17.341 17.341C16.919 17.7629 16.3467 18 15.75 18H2.25C1.65326 18 1.08097 17.7629 0.65901 17.341C0.237053 16.919 0 16.3467 0 15.75V3.375C0 2.77826 0.237053 2.20597 0.65901 1.78401C1.08097 1.36205 1.65326 1.125 2.25 1.125H3.375V0.5625C3.375 0.413316 3.43426 0.270242 3.53975 0.164752C3.64524 0.0592632 3.78832 0 3.9375 0V0ZM1.125 4.5V15.75C1.125 16.0484 1.24353 16.3345 1.4545 16.5455C1.66548 16.7565 1.95163 16.875 2.25 16.875H15.75C16.0484 16.875 16.3345 16.7565 16.5455 16.5455C16.7565 16.3345 16.875 16.0484 16.875 15.75V4.5H1.125Z" fill="#676767"/>
</g>
<defs>
<clipPath id="clip0_211_398">
<rect width="18" height="18" fill="white"/>
</clipPath>
</defs>
</svg>
