<svg width="312" height="211" viewBox="0 0 312 211" fill="none" xmlns="http://www.w3.org/2000/svg">
<g clip-path="url(#clip0_395_408)">
<path d="M63.9864 211H27.5644C26.9034 211 26.3746 210.47 26.3746 209.808V209.146C26.3746 208.484 26.9034 207.954 27.5644 207.954H63.9864C64.6475 207.954 65.1763 208.484 65.1763 209.146V209.808C65.1102 210.47 64.6475 211 63.9864 211Z" fill="#ADBEC4"/>
<path d="M294.747 211H284.766C284.105 211 283.576 210.47 283.576 209.808V209.146C283.576 208.484 284.105 207.954 284.766 207.954H294.747C295.408 207.954 295.937 208.484 295.937 209.146V209.808C295.937 210.47 295.408 211 294.747 211Z" fill="#ADBEC4"/>
<path d="M132.534 211H96.1119C95.4508 211 94.922 210.47 94.922 209.808V209.146C94.922 208.484 95.4508 207.954 96.1119 207.954H132.534C133.195 207.954 133.724 208.484 133.724 209.146V209.808C133.658 210.47 133.195 211 132.534 211Z" fill="#ADBEC4"/>
<path d="M186.01 211H149.588C148.927 211 148.398 210.47 148.398 209.808V209.146C148.398 208.484 148.927 207.954 149.588 207.954H186.01C186.671 207.954 187.2 208.484 187.2 209.146V209.808C187.134 210.47 186.671 211 186.01 211Z" fill="#ADBEC4"/>
<path d="M251.517 211H201.875C201.214 211 200.685 210.47 200.685 209.808V209.146C200.685 208.484 201.214 207.954 201.875 207.954H251.517C252.178 207.954 252.707 208.484 252.707 209.146V209.808C252.641 210.47 252.112 211 251.517 211Z" fill="#ADBEC4"/>
<path d="M136.888 27.0335C136.888 27.0335 137.26 24.255 134.781 24.9396C132.882 25.4631 134.823 30.6174 136.062 31.0604C137.136 31.4228 137.383 30.6577 137.383 30.6577L136.888 27.0335Z" fill="#926041"/>
<path d="M159.191 20.7517C159.232 20.6711 159.273 20.5503 159.273 20.4698C159.273 20.349 159.232 20.2685 159.191 20.1879C159.232 20.1074 159.273 19.9866 159.273 19.8658C159.273 19.745 159.232 19.6644 159.149 19.5839C159.191 19.4631 159.191 19.3423 159.191 19.2617C159.191 19.1409 159.149 19.0604 159.067 18.9799C159.108 18.8993 159.108 18.7785 159.108 18.6577C159.108 18.5369 159.025 18.4564 158.984 18.3758C159.025 18.2953 159.025 18.1745 158.984 18.0537C158.943 17.9329 158.902 17.8523 158.819 17.7718C158.86 17.6913 158.86 17.5705 158.819 17.4497C158.778 17.3289 158.736 17.2483 158.654 17.1678C158.695 17.0872 158.654 16.9664 158.654 16.8456C158.612 16.7248 158.571 16.6443 158.489 16.604C158.489 16.5235 158.489 16.4027 158.447 16.2819C158.406 16.2013 158.323 16.0805 158.241 16.0403C158.241 15.9597 158.241 15.8389 158.199 15.7181C158.158 15.5973 158.076 15.5168 157.993 15.4765C157.993 15.3557 157.993 15.2752 157.91 15.1544C157.869 15.0336 157.786 14.953 157.663 14.9128C157.663 14.7919 157.621 14.7114 157.539 14.5906C157.456 14.5101 157.373 14.4295 157.291 14.3893C157.291 14.2685 157.25 14.1879 157.167 14.1074C157.084 14.0268 157.002 13.9463 156.878 13.9463C156.836 13.8255 156.795 13.745 156.713 13.6644C156.63 13.5839 156.547 13.5436 156.423 13.5034C156.382 13.4228 156.341 13.302 156.258 13.2215C156.176 13.1409 156.052 13.1007 155.969 13.1007C155.928 13.0201 155.887 12.8993 155.763 12.8591C155.68 12.7785 155.556 12.7383 155.474 12.7383C155.432 12.6577 155.35 12.5772 155.267 12.4966C155.184 12.4161 155.061 12.4161 154.978 12.3758C154.937 12.2953 154.854 12.2148 154.771 12.1342C154.689 12.094 154.565 12.0537 154.441 12.0537C154.4 11.9732 154.317 11.8926 154.193 11.8523C154.111 11.8121 153.987 11.7718 153.863 11.7718C153.821 11.6913 153.739 11.6107 153.615 11.5705C153.532 11.5302 153.408 11.4899 153.285 11.5302C153.243 11.4497 153.161 11.3691 153.037 11.3289C152.913 11.2886 152.83 11.2886 152.706 11.2886C152.665 11.2081 152.541 11.1275 152.459 11.0872C152.376 11.047 152.252 11.047 152.128 11.047C152.046 10.9664 151.963 10.9262 151.88 10.8859C151.839 10.8054 151.715 10.8054 151.632 10.8054C151.55 10.7248 151.467 10.6846 151.343 10.6443C151.219 10.604 151.137 10.604 151.013 10.6443C150.93 10.5638 150.848 10.5235 150.724 10.4832C150.6 10.443 150.517 10.443 150.393 10.4832C150.311 10.4027 150.228 10.3624 150.104 10.3221C149.98 10.2819 149.898 10.3221 149.774 10.3221C149.691 10.2416 149.609 10.2013 149.485 10.2013C149.361 10.2013 149.278 10.2013 149.154 10.2416C149.072 10.1611 148.989 10.1208 148.865 10.1208C148.741 10.1208 148.659 10.1208 148.535 10.1611C148.452 10.0805 148.37 10.0403 148.246 10.0403C148.122 10.0403 148.039 10.0403 147.915 10.0805C147.833 10.0403 147.709 10 147.626 10C147.502 10 147.42 10 147.296 10.0805C147.337 10.0403 147.213 10 147.089 10C146.965 10 146.883 10.0403 146.8 10.0805C146.718 10.0403 146.594 10 146.47 10C146.346 10 146.263 10.0403 146.139 10.0805C146.098 10.0403 145.974 10 145.85 10C145.726 10 145.644 10.0403 145.561 10.0805C145.479 10.0403 145.355 10 145.231 10C145.107 10 145.024 10.0403 144.942 10.1208C144.859 10.0805 144.735 10.0403 144.611 10.0805C144.487 10.0805 144.405 10.1208 144.322 10.2013C144.24 10.1611 144.116 10.1611 143.992 10.1611C143.868 10.1611 143.785 10.2013 143.703 10.2819C143.62 10.2416 143.496 10.2416 143.372 10.2416C143.248 10.2819 143.166 10.3221 143.083 10.3624C143.042 10.4027 142.918 10.4027 142.794 10.4027C142.67 10.443 142.587 10.4832 142.505 10.5638C142.422 10.5235 142.298 10.5235 142.174 10.5638C142.051 10.604 141.968 10.6443 141.885 10.7248C141.803 10.6846 141.679 10.6846 141.555 10.7248C141.431 10.7651 141.348 10.8054 141.266 10.8859C141.183 10.8859 141.059 10.8859 140.935 10.9262C140.811 10.9664 140.729 11.0067 140.688 11.0872C140.605 11.0872 140.481 11.0872 140.357 11.1275C140.233 11.1678 140.151 11.2483 140.109 11.3289C139.985 11.3289 139.903 11.3289 139.779 11.3691C139.655 11.4094 139.572 11.4899 139.531 11.5705C139.407 11.5705 139.325 11.5705 139.201 11.651C139.118 11.6913 139.035 11.7718 138.953 11.8523C138.829 11.8523 138.746 11.8926 138.664 11.9329C138.581 11.9732 138.499 12.0537 138.416 12.1342C138.333 12.1342 138.209 12.1745 138.127 12.2148C138.127 12.2953 138.086 12.3758 138.003 12.4966C137.92 12.4966 137.796 12.5369 137.714 12.5772C137.631 12.6577 137.549 12.7383 137.507 12.8188C137.425 12.8591 137.301 12.8993 137.218 12.9799C137.136 13.0201 137.053 13.1007 137.012 13.2215C136.929 13.2215 136.805 13.302 136.723 13.3826C136.64 13.4228 136.599 13.5436 136.557 13.6242C136.475 13.6644 136.351 13.7047 136.268 13.7852C136.186 13.8658 136.144 13.9866 136.103 14.0671C135.979 14.1074 135.897 14.1477 135.814 14.2685C135.731 14.349 135.69 14.4698 135.69 14.5503C135.607 14.5906 135.484 14.6711 135.442 14.7517C135.36 14.8322 135.36 14.953 135.318 15.0738C135.236 15.1141 135.153 15.1946 135.071 15.3154C135.029 15.4362 134.988 15.5168 134.988 15.6376C134.905 15.7181 134.823 15.7987 134.781 15.8792C134.823 16.0403 134.781 16.1208 134.823 16.2416C134.74 16.3221 134.699 16.4027 134.658 16.4832C134.616 16.604 134.616 16.7248 134.658 16.8054C134.575 16.8859 134.534 16.9664 134.492 17.0872C134.451 17.2081 134.492 17.2886 134.492 17.4094C134.41 17.4899 134.368 17.5705 134.368 17.6913C134.368 17.8121 134.368 17.8926 134.41 18.0134C134.327 18.094 134.286 18.1745 134.286 18.2953C134.286 18.4161 134.286 18.4966 134.327 18.6174C134.286 18.698 134.245 18.7785 134.203 18.8993C134.203 19.0201 134.203 19.1007 134.245 19.2215C134.203 19.302 134.162 19.3826 134.121 19.5034C134.121 19.6242 134.121 19.7047 134.203 19.7852C134.162 19.8658 134.121 19.9463 134.121 20.0671C134.121 20.1879 134.121 20.2685 134.203 20.349C134.162 20.4295 134.121 20.5503 134.121 20.6309C134.121 20.7517 134.162 20.8322 134.203 20.9128C134.162 20.9933 134.121 21.1141 134.121 21.1946C134.121 21.3154 134.162 21.396 134.203 21.4765C134.162 21.557 134.121 21.6779 134.121 21.7584C134.121 21.8792 134.162 21.9597 134.203 22.0403C134.162 22.1208 134.121 22.2416 134.121 22.3221C134.121 22.443 134.162 22.5235 134.203 22.604C134.162 22.6846 134.121 22.8054 134.121 22.8859C134.121 23.0067 134.162 23.0872 134.203 23.1678C134.162 23.2483 134.121 23.3691 134.162 23.4497C134.162 23.5705 134.203 23.651 134.245 23.7315C134.203 23.8121 134.203 23.9329 134.203 24.0537C134.203 24.1745 134.245 24.255 134.327 24.3356C134.286 24.4161 134.286 24.5369 134.286 24.6577C134.286 24.7785 134.368 24.8591 134.41 24.9396C134.368 25.0201 134.368 25.1409 134.368 25.2215C134.368 25.3423 134.41 25.4228 134.492 25.5034C134.451 25.5839 134.451 25.7047 134.451 25.7852C134.451 25.906 134.534 25.9866 134.575 26.0671C134.534 26.1476 134.534 26.2685 134.534 26.349C134.534 26.4698 134.616 26.5503 134.658 26.6309C134.616 26.7114 134.616 26.8322 134.616 26.9128C134.658 27.0336 134.699 27.1141 134.74 27.1946C134.699 27.2752 134.699 27.396 134.74 27.5168C134.781 27.6376 134.823 27.7181 134.864 27.7987C134.823 27.8792 134.823 28 134.864 28.0805C134.905 28.2013 134.947 28.2819 134.988 28.3624C134.947 28.443 134.947 28.5638 134.988 28.6846C135.029 28.8054 135.071 28.8859 135.153 28.9664C135.112 29.047 135.112 29.1678 135.153 29.2886C135.236 29.5705 135.277 29.651 135.36 29.7315C135.318 29.8121 135.318 29.9329 135.36 30.0537C135.401 30.1745 135.442 30.255 135.525 30.2953C135.484 30.3758 135.484 30.4966 135.525 30.6174C135.566 30.7383 135.607 30.8188 135.69 30.8591C135.649 30.9396 135.69 31.0604 135.69 31.1812C135.731 31.302 135.814 31.3825 135.855 31.4228C135.855 31.5436 135.855 31.6242 135.897 31.745C135.938 31.8658 136.02 31.9463 136.103 31.9866C136.103 32.0671 136.103 32.1879 136.144 32.3087C136.186 32.4295 136.268 32.5101 136.351 32.5503C136.351 32.6711 136.351 32.7517 136.392 32.8725C136.433 32.953 136.516 33.0336 136.599 33.1141C136.599 33.2349 136.64 33.3154 136.681 33.4362C136.723 33.5168 136.847 33.5973 136.929 33.6376C136.929 33.7584 136.97 33.8389 137.053 33.9597C137.136 34.0403 137.218 34.1208 137.342 34.1611C137.342 34.2819 137.383 34.3624 137.466 34.443C137.631 34.4832 137.714 34.5235 137.796 34.5638C137.796 34.6443 137.879 34.7651 137.962 34.8456C138.044 34.9262 138.127 34.9664 138.209 35.0067C138.251 35.0872 138.292 35.2081 138.375 35.2886C138.457 35.3691 138.54 35.4094 138.664 35.4497C138.705 35.5302 138.746 35.651 138.829 35.7315C138.912 35.8121 138.994 35.8523 139.118 35.8523C139.159 35.9329 139.201 36.0537 139.283 36.094C139.366 36.1745 139.49 36.2148 139.572 36.2148C139.614 36.2953 139.696 36.3758 139.779 36.4564C139.862 36.5369 139.985 36.5772 140.068 36.5772C140.109 36.6577 140.192 36.7383 140.275 36.8188C140.357 36.8993 140.481 36.8993 140.564 36.9396C140.605 37.0201 140.688 37.1007 140.77 37.1812C140.853 37.2215 140.977 37.2617 141.101 37.2617C141.142 37.3423 141.224 37.4228 141.307 37.5034C141.39 37.5436 141.514 37.5839 141.638 37.5839C141.679 37.6644 141.761 37.745 141.885 37.7852C141.968 37.8255 142.092 37.8658 142.216 37.8658C142.257 37.9463 142.34 38.0268 142.464 38.0671C142.546 38.1074 142.67 38.1476 142.794 38.1074C142.835 38.1879 142.918 38.2685 143.042 38.3087C143.124 38.349 143.248 38.349 143.372 38.349C143.455 38.4295 143.537 38.5101 143.62 38.5101C143.744 38.5503 143.826 38.5503 143.95 38.5503C144.033 38.6309 144.116 38.6711 144.198 38.7114C144.322 38.7517 144.405 38.7517 144.529 38.7114C144.611 38.7919 144.694 38.8322 144.818 38.8725C144.942 38.9127 145.024 38.9127 145.148 38.8725C145.231 38.953 145.313 38.9933 145.437 39.0336C145.561 39.0738 145.644 39.0336 145.768 38.9933C145.85 39.0738 145.933 39.1141 146.057 39.1141C146.181 39.1141 146.305 39.1141 146.387 39.0738C146.47 39.1544 146.594 39.1946 146.718 39.1946C146.842 39.1946 146.965 39.1544 147.048 39.1141C147.131 39.1544 147.255 39.1946 147.378 39.1544C147.502 39.1544 147.585 39.0738 147.709 39.0336C147.791 39.0738 147.915 39.0738 148.039 39.0738C148.163 39.0336 148.246 38.9933 148.328 38.9128C148.411 38.953 148.535 38.953 148.659 38.9128C148.783 38.8725 148.865 38.8322 148.948 38.7517C149.072 38.7919 149.154 38.7517 149.278 38.7517C149.402 38.7114 149.485 38.6711 149.526 38.5906C149.609 38.5906 149.733 38.5906 149.857 38.5503C149.939 38.5101 150.063 38.4295 150.104 38.349C150.187 38.349 150.311 38.349 150.435 38.3087C150.517 38.2685 150.6 38.1879 150.683 38.1074C150.806 38.1074 150.889 38.1074 151.013 38.0268C151.096 37.9866 151.178 37.906 151.261 37.8255C151.343 37.8255 151.467 37.8255 151.55 37.745C151.632 37.7047 151.715 37.6242 151.756 37.5436C151.839 37.5436 151.963 37.5034 152.046 37.4631C152.128 37.4228 152.211 37.3423 152.252 37.2215C152.335 37.2215 152.459 37.1812 152.541 37.1409C152.624 37.1007 152.706 36.9799 152.748 36.8993C152.83 36.8993 152.954 36.8591 153.037 36.7785C153.119 36.698 153.202 36.6174 153.243 36.5369C153.326 36.5369 153.45 36.4966 153.532 36.4161C153.615 36.3356 153.698 36.255 153.739 36.1745C153.821 36.1745 153.945 36.094 154.028 36.0537C154.111 35.9732 154.152 35.8926 154.193 35.8121C154.276 35.7718 154.4 35.7315 154.482 35.651C154.565 35.5705 154.606 35.4899 154.648 35.3691C154.73 35.3289 154.854 35.2886 154.937 35.2081C155.019 35.1275 155.061 35.047 155.102 34.9262C155.184 34.8859 155.308 34.8456 155.35 34.7651C155.432 34.6846 155.474 34.604 155.474 34.4832C155.556 34.443 155.68 34.4027 155.721 34.3221C155.804 34.2416 155.845 34.1208 155.845 34C155.928 33.9597 156.052 33.8792 156.093 33.7987C156.176 33.7181 156.176 33.5973 156.176 33.4765C156.258 33.4362 156.341 33.3557 156.423 33.2349C156.465 33.1141 156.506 33.0336 156.506 32.9128C156.589 32.8725 156.671 32.7919 156.713 32.6711C156.754 32.5906 156.754 32.4698 156.754 32.349C156.836 32.2685 156.919 32.1879 156.96 32.1074C157.002 31.9866 157.002 31.906 157.002 31.7852C157.084 31.7047 157.167 31.6242 157.167 31.5436C157.208 31.4228 157.208 31.3423 157.208 31.2215C157.291 31.1409 157.332 31.0604 157.373 30.9799C157.415 30.8591 157.415 30.7785 157.373 30.6577C157.456 30.5772 157.497 30.4966 157.539 30.4161C157.58 30.2953 157.58 30.2148 157.539 30.094C157.621 30.0134 157.663 29.9329 157.704 29.8121C157.745 29.6913 157.745 29.6107 157.704 29.5302C157.786 29.4497 157.828 29.3691 157.869 29.2483C157.91 29.1275 157.91 29.047 157.869 28.9262C157.952 28.8456 157.993 28.7651 158.034 28.6443C158.076 28.5235 158.034 28.443 158.034 28.3221C158.117 28.2416 158.158 28.1611 158.199 28.0403C158.241 27.9195 158.199 27.8389 158.199 27.7181C158.282 27.6376 158.323 27.557 158.323 27.4362C158.365 27.3154 158.323 27.2349 158.323 27.1141C158.406 27.0336 158.447 26.953 158.447 26.8322C158.447 26.7114 158.447 26.6309 158.406 26.5503C158.489 26.4698 158.53 26.3893 158.53 26.2685C158.53 26.1476 158.53 26.0671 158.489 25.9463C158.571 25.8658 158.612 25.7852 158.612 25.6644C158.612 25.5436 158.612 25.4631 158.571 25.3825C158.654 25.302 158.695 25.2215 158.695 25.1007C158.695 24.9799 158.695 24.8993 158.654 24.8188C158.736 24.7383 158.778 24.6577 158.778 24.5369C158.778 24.4161 158.778 24.3356 158.736 24.255C158.819 24.1745 158.86 24.094 158.86 23.9732C158.86 23.8523 158.86 23.7718 158.819 23.6913C158.902 23.6107 158.943 23.5302 158.943 23.4094C158.943 23.2886 158.943 23.2081 158.902 23.1275C158.943 23.047 158.984 22.9664 159.025 22.8456C159.025 22.7248 159.025 22.6443 158.984 22.5638C159.025 22.4832 159.067 22.4027 159.108 22.2819C159.108 22.1611 159.108 22.0805 159.067 21.9597C159.108 21.8792 159.149 21.7584 159.191 21.6779C159.191 21.557 159.191 21.4765 159.108 21.396C159.149 21.3154 159.191 21.1946 159.191 21.1141C159.273 20.953 159.232 20.8725 159.191 20.7517Z" fill="#291112"/>
<path d="M156.341 27.1141C156.341 27.1141 155.969 24.3356 158.447 25.0201C160.347 25.5436 158.365 30.698 157.126 31.1007C156.052 31.4631 155.845 30.6577 155.845 30.6577L156.341 27.1141Z" fill="#926041"/>
<path d="M146.718 46C146.718 46 153.656 41.4094 153.243 41.208C150.848 39.9195 151.013 36.2953 151.013 36.2953L142.298 35.8121C142.298 35.8121 142.835 41.0067 140.233 41.651C140.027 41.6913 146.718 46 146.718 46Z" fill="#926041"/>
<path d="M142.174 38.9128C142.546 39.0336 142.877 39.2349 143.248 39.5168C144.405 40.4832 147.048 41.8926 148.659 41.4094C149.857 41.047 150.724 40.0403 151.55 39.1141C150.972 37.7047 151.054 36.255 151.054 36.255L142.34 35.7718C142.298 35.8121 142.464 37.3826 142.174 38.9128Z" fill="#7B4B32"/>
<path d="M156.589 28.3624C156.176 31.3826 156.01 33.1544 154.193 35.2886C152.913 36.7785 150.187 39.0336 148.163 39.9195C147.585 40.1611 145.768 40.2013 145.231 40C143.042 39.1544 139.944 36.9799 138.87 35.2081C137.425 32.8725 137.053 31.0201 136.64 28.2416C136.144 24.9396 136.103 26.1074 136.103 22.9664C136.144 16.604 138.664 12.0134 146.015 12.0134C153.367 12.0537 157.084 16.0805 157.167 22.604C157.208 26.2685 157.084 25.0201 156.589 28.3624Z" fill="#926041"/>
<path d="M141.844 34.5235C141.348 36.094 142.257 38.4296 142.587 38.6309C143.496 39.2349 144.446 39.7181 145.272 40.0403C145.85 40.2416 147.668 40.2416 148.204 39.9598C148.824 39.6779 149.526 39.2752 150.228 38.792C150.559 38.5504 151.591 36.0537 151.426 34.5235C151.261 32.9933 148.618 32.3893 146.511 32.4296C144.446 32.4698 142.298 32.953 141.844 34.5235Z" fill="#291112"/>
<path d="M142.629 34.6846C142.34 35.6913 143.785 37.7047 143.992 37.8255C144.57 38.2282 145.189 38.5503 145.726 38.7114C145.892 38.7517 146.305 36.6577 146.635 36.6577C147.048 36.6577 147.42 38.7517 147.626 38.6309C148.039 38.4295 148.494 38.1879 148.948 37.8658C149.154 37.7047 150.765 35.2886 150.641 34.3221C150.517 33.3557 148.411 34.1611 146.387 34.1611C145.024 34.1611 142.918 33.6778 142.629 34.6846Z" fill="#926041"/>
<path d="M138.664 22.0805C141.885 20.4295 142.174 23.7718 147.048 23.5302C149.196 23.4094 151.88 21.1141 153.285 21.1141C156.547 21.1141 155.184 25.906 155.68 28.4429C155.804 29.1275 156.423 27.7584 156.589 28.4832C156.589 28.4429 156.589 28.4027 156.589 28.3624C157.043 25.0201 157.167 26.2282 157.126 22.6443C157.043 16.1208 153.532 11.6913 146.222 11.651C138.87 11.6107 136.144 16.6443 136.103 23.0067C136.103 25.9866 136.929 25.745 137.383 28.5235C138.003 27.2349 137.177 22.8456 138.664 22.0805Z" fill="#7B4B32"/>
<path d="M138.54 21.396C139.903 20.0671 142.257 22.7651 147.089 22.7651C151.798 22.7651 152.748 19.8658 155.102 21.396C157.167 22.6846 155.556 28.8859 155.556 28.8859C155.556 28.8859 156.589 28.4429 156.589 28.3624C157.043 25.0201 157.58 26.349 157.539 22.7651C157.456 16.2013 153.532 11.6913 146.222 11.651C138.87 11.6107 135.773 16.6443 135.731 23.0067C135.731 26.1476 136.268 25.8658 136.764 29.208C136.764 29.2483 137.838 28.8859 137.838 28.8859C137.838 28.8859 135.773 24.0537 138.54 21.396Z" fill="#291112"/>
<path d="M154.028 27.0738C154.028 27.0738 153.945 27.5973 153.45 28.0403C153.078 28.3624 150.806 28.604 150.6 28.4832C150.228 28.3222 149.774 27.5973 149.774 27.5973C149.774 27.5973 150.559 26.5504 151.55 26.5504C152.5 26.5504 154.028 27.0738 154.028 27.0738Z" fill="white"/>
<path d="M151.509 26.7517C152.211 26.7517 153.202 27.0336 153.698 27.1947C153.821 27.2349 153.739 27.5973 153.574 27.9195C153.987 27.5571 154.028 27.0738 154.028 27.0738C154.028 27.0738 152.5 26.5504 151.55 26.5504C150.559 26.5504 149.774 27.5973 149.774 27.5973C149.774 27.5973 149.815 27.7181 149.898 27.7584C150.022 27.5571 150.683 26.7517 151.509 26.7517Z" fill="#3C2415"/>
<path d="M151.591 28.4832C152.139 28.4832 152.582 28.0505 152.582 27.5168C152.582 26.983 152.139 26.5504 151.591 26.5504C151.044 26.5504 150.6 26.983 150.6 27.5168C150.6 28.0505 151.044 28.4832 151.591 28.4832Z" fill="#3C2415"/>
<path d="M152.459 27.5168C152.459 27.9195 151.261 26.7517 151.715 26.7517C152.128 26.7919 152.459 27.1141 152.459 27.5168Z" fill="white"/>
<path d="M138.333 25.3825C138.333 25.3825 138.912 25.0201 140.151 24.6577C141.514 24.255 143.372 24.8993 143.455 24.8993C143.579 24.8993 143.785 24.859 143.785 24.5369C143.785 24.2148 143.703 23.9329 143.537 23.9329C143.455 23.9329 141.638 23.4899 140.233 23.8926C139.159 24.2148 138.333 25.3825 138.333 25.3825Z" fill="#291112"/>
<path d="M155.102 25.4631C155.102 25.4631 154.565 25.1007 153.326 24.7383C151.963 24.3356 150.146 24.9396 150.063 24.9396C149.939 24.9396 149.733 24.8993 149.733 24.5772C149.733 24.255 149.857 23.9732 149.98 23.9732C150.063 23.9732 151.88 23.5705 153.243 23.9732C154.276 24.2953 155.102 25.4631 155.102 25.4631Z" fill="#291112"/>
<path d="M139.449 27.0336C139.449 27.0336 139.531 27.5571 140.027 28.0403C140.398 28.3624 142.67 28.604 142.877 28.5235C143.248 28.3624 143.703 27.6376 143.703 27.6376C143.703 27.6376 142.959 26.5101 141.968 26.5101C140.977 26.5101 139.449 27.0336 139.449 27.0336Z" fill="white"/>
<path d="M141.968 26.7114C141.266 26.7114 140.275 26.953 139.779 27.1141C139.655 27.1544 139.738 27.5168 139.903 27.8389C139.49 27.4765 139.449 26.9933 139.449 26.9933C139.449 26.9933 140.977 26.4698 141.968 26.4698C142.959 26.4698 143.744 27.557 143.744 27.557C143.744 27.557 143.703 27.6778 143.62 27.7181C143.455 27.557 142.794 26.7114 141.968 26.7114Z" fill="#3C2415"/>
<path d="M140.894 27.4765C140.894 28 141.348 28.443 141.885 28.443C142.422 28.443 142.877 28 142.877 27.4765C142.877 26.953 142.422 26.5101 141.885 26.5101C141.348 26.5101 140.894 26.953 140.894 27.4765Z" fill="#3C2415"/>
<path d="M141.018 27.4765C141.018 27.8792 142.216 26.7517 141.803 26.7517C141.348 26.7517 141.018 27.0738 141.018 27.4765Z" fill="white"/>
<path d="M146.635 31.5839L145.726 30.8993L146.635 28.8859V31.5839Z" fill="#7B4B32"/>
<path d="M144.322 35.3289L143.661 34.7248L144.735 35.0067H148.576L149.65 34.6846L148.824 35.3289H144.322Z" fill="#7B4B32"/>
<path d="M80.6441 68.9871C85.9322 67.2657 89.1712 71.7016 92.2119 79.9112C95.2525 88.1208 96.2441 88.9153 96.2441 88.9153L107.944 96.4628L106.953 100.832C106.953 100.832 95.8475 96.4628 93.1373 93.6821C90.4271 90.9014 82.6932 76.8657 82.6932 76.8657L80.6441 68.9871Z" fill="#926041"/>
<path d="M54.8644 122.018C54.8644 122.018 52.5509 133.671 52.9475 151.149C52.9475 151.149 43.8915 164.523 51.361 202.592H55.261C55.261 202.592 58.4339 170.151 60.8797 161.411C63.3254 152.606 72.3814 149.958 72.8441 123.21L54.8644 122.018Z" fill="#926041"/>
<path d="M36.9508 156.247C34.7034 148.766 28.8203 136.187 13.8152 119.105C13.8152 119.105 12.8898 118.642 11.7 119.37C10.4441 120.165 10.4441 121.092 10.4441 121.092C10.4441 121.092 17.9797 137.511 22.739 149.56C24.3254 153.599 28.2254 156.247 32.5881 156.247H36.9508Z" fill="#926041"/>
<path d="M64.2509 170.746C64.2509 170.746 64.317 176.374 60.6153 176.44C55.4593 176.573 55.261 170.945 49.378 171.144C43.4949 171.342 31.3983 172.799 27.5644 163.596C25.5814 158.829 28.2915 152.738 21.8797 148.17C15.4678 143.602 18.5746 138.438 21.8797 135.657C25.1848 132.876 20.4254 129.897 23.9288 128.507C24.722 128.176 25.5814 128.242 26.3085 128.441C26.7712 128.573 27.1678 128.838 27.5644 129.103C29.4153 130.294 30.6712 132.413 30.6712 132.413C40.3881 105.732 57.7068 102.223 57.7068 102.223L74.8271 108.115C75.2237 149.627 64.2509 170.746 64.2509 170.746Z" fill="#164353"/>
<path d="M80.6441 68.9871C80.6441 68.9871 76.678 70.3113 70.9932 69.4506C65.3085 68.5899 63.4576 65.0147 59.4915 67.332C53.4763 70.7747 56.3187 82.6919 57.839 88.8491C58.3678 91.1663 59.0949 97.1911 57.7729 102.223C57.7729 102.223 65.7712 108.446 74.8932 108.115L79.8509 97.2573C79.7848 97.2573 90.6254 84.2808 80.6441 68.9871Z" fill="#CFD8DC"/>
<path d="M70.4538 58.8717C70.4538 58.8717 71.146 64.4638 69 69.5296C69 69.5296 72.1152 73.8717 75.092 71.0427C75.092 71.0427 75.3689 65.9112 78.6918 60.1217C80.9071 56.2401 70.4538 58.8717 70.4538 58.8717Z" fill="#82554C"/>
<path d="M58.1034 68.3913C60.6814 66.3389 62.6644 68.9209 63.1932 72.4961C63.6559 76.0712 59.0288 97.1911 55.3932 96.4628C54.0051 96.1318 53.4102 90.6366 53.4102 90.6366C53.4102 90.6366 54.7983 84.6781 55.7237 75.7402C56.1865 71.6354 56.7153 69.4506 58.1034 68.3913Z" fill="#926041"/>
<path d="M50.5678 93.4835C47.0644 90.1732 40.8508 79.1829 39.2644 73.5554L41.9085 72.4961C41.9085 72.4961 49.8407 83.8836 53.4763 86.7305C57.1119 89.5773 58.3678 92.8214 56.7814 95.5359C55.1288 98.2504 51.2949 94.2118 50.5678 93.4835Z" fill="#926041"/>
<path d="M40.3881 66.2726C40.1898 69.8478 43.1644 70.7085 41.8424 73.4892C41.578 74.085 41.1814 74.3498 40.7187 74.4823C39.9254 74.7471 39 74.4823 38.4051 73.8864C37.017 72.4961 34.8356 70.9733 33.7119 70.3112C32.3898 69.583 33.117 69.3844 33.117 69.3844C32.9848 69.3182 32.8526 69.2519 32.7203 69.2519C31.7949 68.8547 31.0678 68.7223 31.7288 68.325C32.4559 67.8616 35.1661 68.8547 35.1661 68.8547C31.6627 66.5375 30.7373 67.0671 31.3322 66.6037C32.1915 65.9416 35.4966 67.4644 35.6288 67.5306C33.778 65.8092 32.4559 65.412 33.1831 65.1471C33.9102 64.8823 37.6119 67.5306 38.9339 68.5237C39.2644 68.7223 39.3966 68.9209 39.3966 68.9209C39.4627 65.8754 40.3881 66.2726 40.3881 66.2726Z" fill="#926041"/>
<path d="M39 68.3913C39.3305 68.5899 39.4627 68.7885 39.4627 68.7885C39.4627 68.7885 38.8678 69.8478 39.661 71.2381C39.7271 71.2381 38.2068 70.245 39 68.3913Z" fill="#765139"/>
<path d="M35.9593 70.5099C35.6288 70.3113 33.9102 69.3182 33.183 69.3844C33.0508 69.3182 32.9186 69.252 32.7864 69.252C33.3153 68.5899 35.6288 70.245 35.9593 70.5099Z" fill="#765139"/>
<path d="M49.1136 124.534C49.5151 124.534 49.8407 124.208 49.8407 123.806C49.8407 123.404 49.5151 123.078 49.1136 123.078C48.712 123.078 48.3864 123.404 48.3864 123.806C48.3864 124.208 48.712 124.534 49.1136 124.534Z" fill="#6097B2"/>
<path d="M61.6729 129.434C62.0745 129.434 62.4 129.108 62.4 128.705C62.4 128.303 62.0745 127.977 61.6729 127.977C61.2713 127.977 60.9458 128.303 60.9458 128.705C60.9458 129.108 61.2713 129.434 61.6729 129.434Z" fill="#6097B2"/>
<path d="M72.4475 132.016C72.8491 132.016 73.1746 131.69 73.1746 131.287C73.1746 130.885 72.8491 130.559 72.4475 130.559C72.0459 130.559 71.7204 130.885 71.7204 131.287C71.7204 131.69 72.0459 132.016 72.4475 132.016Z" fill="#6097B2"/>
<path d="M55.922 115.332C56.3236 115.332 56.6492 115.006 56.6492 114.603C56.6492 114.201 56.3236 113.875 55.922 113.875C55.5205 113.875 55.1949 114.201 55.1949 114.603C55.1949 115.006 55.5205 115.332 55.922 115.332Z" fill="#6097B2"/>
<path d="M58.3017 122.018C58.7033 122.018 59.0288 121.692 59.0288 121.29C59.0288 120.888 58.7033 120.562 58.3017 120.562C57.9001 120.562 57.5746 120.888 57.5746 121.29C57.5746 121.692 57.9001 122.018 58.3017 122.018Z" fill="#6097B2"/>
<path d="M69.4729 125.858C69.8745 125.858 70.2 125.532 70.2 125.13C70.2 124.728 69.8745 124.402 69.4729 124.402C69.0713 124.402 68.7458 124.728 68.7458 125.13C68.7458 125.532 69.0713 125.858 69.4729 125.858Z" fill="#6097B2"/>
<path d="M70.9932 114.272C71.3948 114.272 71.7203 113.946 71.7203 113.544C71.7203 113.142 71.3948 112.816 70.9932 112.816C70.5917 112.816 70.2661 113.142 70.2661 113.544C70.2661 113.946 70.5917 114.272 70.9932 114.272Z" fill="#6097B2"/>
<path d="M63.7221 111.889C64.1236 111.889 64.4492 111.563 64.4492 111.161C64.4492 110.758 64.1236 110.432 63.7221 110.432C63.3205 110.432 62.9949 110.758 62.9949 111.161C62.9949 111.563 63.3205 111.889 63.7221 111.889Z" fill="#6097B2"/>
<path d="M42.9 138.371C43.3016 138.371 43.6272 138.045 43.6272 137.643C43.6272 137.241 43.3016 136.915 42.9 136.915C42.4985 136.915 42.1729 137.241 42.1729 137.643C42.1729 138.045 42.4985 138.371 42.9 138.371Z" fill="#6097B2"/>
<path d="M32.7864 135.326C33.188 135.326 33.5136 135 33.5136 134.598C33.5136 134.196 33.188 133.869 32.7864 133.869C32.3849 133.869 32.0593 134.196 32.0593 134.598C32.0593 135 32.3849 135.326 32.7864 135.326Z" fill="#6097B2"/>
<path d="M27.4983 129.103C27.3661 129.301 27.1678 129.434 26.9034 129.434C26.5068 129.434 26.1763 129.103 26.1763 128.705C26.1763 128.639 26.1763 128.507 26.2424 128.441C26.7051 128.639 27.1017 128.838 27.4983 129.103Z" fill="#6097B2"/>
<path d="M46.4695 147.574C46.8711 147.574 47.1966 147.248 47.1966 146.846C47.1966 146.444 46.8711 146.118 46.4695 146.118C46.0679 146.118 45.7424 146.444 45.7424 146.846C45.7424 147.248 46.0679 147.574 46.4695 147.574Z" fill="#6097B2"/>
<path d="M28.4237 157.571C28.8253 157.571 29.1509 157.245 29.1509 156.843C29.1509 156.441 28.8253 156.115 28.4237 156.115C28.0222 156.115 27.6966 156.441 27.6966 156.843C27.6966 157.245 28.0222 157.571 28.4237 157.571Z" fill="#6097B2"/>
<path d="M35.8271 151.48C36.2287 151.48 36.5542 151.154 36.5542 150.752C36.5542 150.35 36.2287 150.024 35.8271 150.024C35.4255 150.024 35.1 150.35 35.1 150.752C35.1 151.154 35.4255 151.48 35.8271 151.48Z" fill="#6097B2"/>
<path d="M24.7882 146.118C25.1897 146.118 25.5153 145.792 25.5153 145.389C25.5153 144.987 25.1897 144.661 24.7882 144.661C24.3866 144.661 24.061 144.987 24.061 145.389C24.061 145.792 24.3866 146.118 24.7882 146.118Z" fill="#6097B2"/>
<path d="M33.7119 167.304C34.1135 167.304 34.439 166.978 34.439 166.575C34.439 166.173 34.1135 165.847 33.7119 165.847C33.3103 165.847 32.9848 166.173 32.9848 166.575C32.9848 166.978 33.3103 167.304 33.7119 167.304Z" fill="#6097B2"/>
<path d="M40.3882 130.096C40.7897 130.096 41.1153 129.77 41.1153 129.367C41.1153 128.965 40.7897 128.639 40.3882 128.639C39.9866 128.639 39.661 128.965 39.661 129.367C39.661 129.77 39.9866 130.096 40.3882 130.096Z" fill="#6097B2"/>
<path d="M47.1966 118.245C47.5982 118.245 47.9237 117.919 47.9237 117.516C47.9237 117.114 47.5982 116.788 47.1966 116.788C46.7951 116.788 46.4695 117.114 46.4695 117.516C46.4695 117.919 46.7951 118.245 47.1966 118.245Z" fill="#6097B2"/>
<path d="M54.8644 108.314C55.266 108.314 55.5915 107.988 55.5915 107.585C55.5915 107.183 55.266 106.857 54.8644 106.857C54.4628 106.857 54.1373 107.183 54.1373 107.585C54.1373 107.988 54.4628 108.314 54.8644 108.314Z" fill="#6097B2"/>
<path d="M39.3305 122.747C39.7321 122.747 40.0576 122.421 40.0576 122.018C40.0576 121.616 39.7321 121.29 39.3305 121.29C38.9289 121.29 38.6034 121.616 38.6034 122.018C38.6034 122.421 38.9289 122.747 39.3305 122.747Z" fill="#6097B2"/>
<path d="M47.8576 111.161C48.2592 111.161 48.5848 110.835 48.5848 110.432C48.5848 110.03 48.2592 109.704 47.8576 109.704C47.4561 109.704 47.1305 110.03 47.1305 110.432C47.1305 110.835 47.4561 111.161 47.8576 111.161Z" fill="#6097B2"/>
<path d="M34.3729 143.006C34.7745 143.006 35.1 142.68 35.1 142.278C35.1 141.875 34.7745 141.549 34.3729 141.549C33.9713 141.549 33.6458 141.875 33.6458 142.278C33.6458 142.68 33.9713 143.006 34.3729 143.006Z" fill="#6097B2"/>
<path d="M25.5153 136.783C25.9168 136.783 26.2424 136.456 26.2424 136.054C26.2424 135.652 25.9168 135.326 25.5153 135.326C25.1137 135.326 24.7881 135.652 24.7881 136.054C24.7881 136.456 25.1137 136.783 25.5153 136.783Z" fill="#6097B2"/>
<path d="M51.2288 134.664C51.6304 134.664 51.9559 134.338 51.9559 133.936C51.9559 133.533 51.6304 133.207 51.2288 133.207C50.8273 133.207 50.5017 133.533 50.5017 133.936C50.5017 134.338 50.8273 134.664 51.2288 134.664Z" fill="#6097B2"/>
<path d="M65.8373 138.371C66.2389 138.371 66.5644 138.045 66.5644 137.643C66.5644 137.241 66.2389 136.915 65.8373 136.915C65.4357 136.915 65.1102 137.241 65.1102 137.643C65.1102 138.045 65.4357 138.371 65.8373 138.371Z" fill="#6097B2"/>
<path d="M65.1102 118.245C65.5118 118.245 65.8373 117.919 65.8373 117.516C65.8373 117.114 65.5118 116.788 65.1102 116.788C64.7086 116.788 64.3831 117.114 64.3831 117.516C64.3831 117.919 64.7086 118.245 65.1102 118.245Z" fill="#6097B2"/>
<path d="M73.5712 119.701C73.9728 119.701 74.2983 119.375 74.2983 118.973C74.2983 118.571 73.9728 118.245 73.5712 118.245C73.1696 118.245 72.8441 118.571 72.8441 118.973C72.8441 119.375 73.1696 119.701 73.5712 119.701Z" fill="#6097B2"/>
<path d="M56.6492 143.668C57.0508 143.668 57.3763 143.342 57.3763 142.94C57.3763 142.538 57.0508 142.211 56.6492 142.211C56.2476 142.211 55.9221 142.538 55.9221 142.94C55.9221 143.342 56.2476 143.668 56.6492 143.668Z" fill="#6097B2"/>
<path d="M50.5017 156.247C50.9033 156.247 51.2288 155.921 51.2288 155.519C51.2288 155.117 50.9033 154.791 50.5017 154.791C50.1001 154.791 49.7746 155.117 49.7746 155.519C49.7746 155.921 50.1001 156.247 50.5017 156.247Z" fill="#6097B2"/>
<path d="M39.7271 158.3C40.1287 158.3 40.4543 157.974 40.4543 157.571C40.4543 157.169 40.1287 156.843 39.7271 156.843C39.3256 156.843 39 157.169 39 157.571C39 157.974 39.3256 158.3 39.7271 158.3Z" fill="#6097B2"/>
<path d="M69.4729 147.574C69.8745 147.574 70.2 147.248 70.2 146.846C70.2 146.444 69.8745 146.118 69.4729 146.118C69.0713 146.118 68.7458 146.444 68.7458 146.846C68.7458 147.248 69.0713 147.574 69.4729 147.574Z" fill="#6097B2"/>
<path d="M59.756 152.937C60.1575 152.937 60.4831 152.611 60.4831 152.209C60.4831 151.806 60.1575 151.48 59.756 151.48C59.3544 151.48 59.0288 151.806 59.0288 152.209C59.0288 152.611 59.3544 152.937 59.756 152.937Z" fill="#6097B2"/>
<path d="M45.0814 168.694C45.4829 168.694 45.8085 168.368 45.8085 167.966C45.8085 167.564 45.4829 167.238 45.0814 167.238C44.6798 167.238 44.3542 167.564 44.3542 167.966C44.3542 168.368 44.6798 168.694 45.0814 168.694Z" fill="#6097B2"/>
<path d="M55.922 164.986C56.3236 164.986 56.6492 164.66 56.6492 164.258C56.6492 163.856 56.3236 163.53 55.922 163.53C55.5205 163.53 55.1949 163.856 55.1949 164.258C55.1949 164.66 55.5205 164.986 55.922 164.986Z" fill="#6097B2"/>
<path d="M66.4322 160.882C66.8338 160.882 67.1593 160.556 67.1593 160.153C67.1593 159.751 66.8338 159.425 66.4322 159.425C66.0306 159.425 65.7051 159.751 65.7051 160.153C65.7051 160.556 66.0306 160.882 66.4322 160.882Z" fill="#6097B2"/>
<path d="M61.6729 172.997C62.0745 172.997 62.4 172.671 62.4 172.269C62.4 171.867 62.0745 171.541 61.6729 171.541C61.2713 171.541 60.9458 171.867 60.9458 172.269C60.9458 172.671 61.2713 172.997 61.6729 172.997Z" fill="#6097B2"/>
<path d="M61.6068 209.477H50.039C49.3119 207.292 50.7 205.174 50.4356 203.254C50.039 200.01 51.8898 201.797 51.8898 201.797C52.2203 198.355 57.0458 197.692 57.0458 199.215C56.9797 201.466 57.3763 202.923 58.0373 203.85C59.3593 205.77 61.4746 205.703 61.8712 207.094C61.9373 207.226 61.9373 207.359 61.9373 207.491C62.3339 209.146 61.6068 209.477 61.6068 209.477Z" fill="#164353"/>
<path d="M61.9373 207.491C59.5576 208.021 54.0051 207.292 53.8068 205.902C53.6085 204.578 56.583 203.916 58.0373 203.85C59.3593 205.77 61.4746 205.703 61.8712 207.094C61.9373 207.226 61.9373 207.359 61.9373 207.491Z" fill="#205260"/>
<path d="M14.0136 119.569C12.7576 118.443 10.7746 120.297 10.7746 120.297C10.7746 120.297 11.8322 121.886 11.1712 122.548C10.4441 123.21 9.65085 121.687 8.26272 122.35C8.13051 122.416 8.06441 122.482 7.93221 122.548C6.87458 123.21 5.75085 124.534 4.82543 125.527C4.62712 125.726 4.49492 125.925 4.29661 126.123C3.23899 127.249 0.528817 127.845 3.83332e-06 124.932C-0.52881 122.018 2.77628 118.576 6.41187 115.398C10.0475 112.22 12.361 114.14 12.361 114.14C12.361 114.14 13.1542 115.464 13.1542 116.325C13.1542 117.119 13.8814 117.583 14.278 118.377C14.8068 119.105 14.0136 119.569 14.0136 119.569Z" fill="#164353"/>
<path d="M7.9322 122.548C6.87458 123.21 5.75085 124.534 4.82542 125.527C3.43729 125.858 2.24746 125.726 2.04915 124.468C1.58644 121.356 7.7339 117.45 7.27119 119.635C7.00678 120.761 7.46949 121.82 7.9322 122.548Z" fill="#205260"/>
<path d="M59.2167 58.7985C59.6277 57.5726 60.6551 56.6192 61.8196 56.1084C61.2031 55.6316 60.9291 54.7463 61.2031 54.0312C61.4771 53.3161 62.2306 52.8053 63.0183 52.8393C62.1278 51.6475 62.3676 49.8768 63.3608 48.753C64.354 47.6293 65.8952 47.1526 67.3679 47.1526C67.6076 45.6202 68.8749 44.3262 70.416 44.0538C71.9572 43.7814 73.6012 44.5646 74.3204 45.9267C75.1081 45.2456 76.3068 45.0413 77.2316 45.5181C77.8138 45.7905 78.2933 46.3353 78.533 46.9142C78.7728 46.8461 79.0125 46.8461 79.218 46.9483C79.629 47.1526 79.8002 47.6974 79.5947 48.106C81.5469 48.106 83.4991 49.2979 84.3553 51.0686C85.2115 52.8053 84.9718 55.0527 83.7731 56.5851C84.8006 56.2786 85.9993 57.1299 85.9993 58.1856C86.0335 59.2412 84.8691 60.1606 83.8416 59.8882C84.7663 60.5011 85.0403 61.8973 84.5266 62.9189C84.0128 63.9404 82.9169 64.5534 81.7867 64.6555C80.6564 64.7577 79.5262 64.3831 78.533 63.8383C79.1495 64.5534 78.807 65.7793 78.0193 66.3241C77.2316 66.8689 76.1356 66.8349 75.2451 66.4944C74.3547 66.1538 73.6012 65.5068 72.8477 64.8939C72.5052 65.7112 71.786 66.4263 70.9298 66.5284C70.0393 66.5965 69.1146 65.7452 69.3543 64.9279C68.5666 65.643 67.6076 66.1538 66.5459 66.2219C65.4842 66.3241 64.3883 65.9155 63.7375 65.0982C63.0868 64.281 62.9841 63.021 63.6005 62.1697C62.7443 63.1232 61.1004 63.1232 60.1072 62.3059C59.1139 61.4886 58.8057 60.0244 59.2167 58.7985Z" fill="#162A45"/>
<path d="M71.0668 60.1606L69.6968 67.4819C69.6968 67.4819 72.6765 69.9337 75.4849 68.6056L76.0671 62.987L71.0668 60.1606Z" fill="#82554C"/>
<path d="M75.8273 65.4387C72.4025 65.3025 70.827 62.9189 70.827 62.9189L76.0328 63.5318L75.8273 65.4387Z" fill="#542C24"/>
<path d="M79.9715 58.3558C80.0057 58.3899 79.9715 58.3899 79.9715 58.3558C80.04 58.3899 80.0742 58.4239 80.1085 58.4239C80.177 58.458 80.2112 58.492 80.2797 58.5261C80.04 59.0028 79.903 59.6839 80.4167 59.9903C80.6565 60.1265 80.9305 60.1265 81.136 59.9563C81.3757 59.752 81.4442 59.4114 81.4099 59.139C81.3757 58.7985 81.1702 58.5261 80.8962 58.3558C80.725 58.2537 80.8962 57.9472 81.0675 58.0493C81.4099 58.2537 81.6497 58.5601 81.7182 58.9688C81.7867 59.3774 81.7182 59.8201 81.4442 60.1265C81.2045 60.399 80.7935 60.5352 80.451 60.399C80.1085 60.2627 79.8345 59.9563 79.766 59.5817C79.6633 59.1731 79.8002 58.7304 79.9715 58.3558Z" fill="#FFA233"/>
<path d="M74.6286 48.072C68.7036 48.1741 66.2034 52.0221 67.7789 58.3899C69.0461 63.4637 72.745 65.7792 76.6493 64.4852C79.7317 63.4296 81.3414 60.6033 81.0332 56.7213C80.5879 51.1707 78.1563 48.0039 74.6286 48.072Z" fill="#82554C"/>
<path d="M79.218 50.2173C78.2248 49.5362 77.0946 49.0936 75.9301 48.8893C76.1356 48.9233 76.2726 49.1957 76.2041 49.4C76.1356 49.6044 75.9301 49.7406 75.7246 49.8087C75.5191 49.8427 75.2794 49.8427 75.0739 49.8087C75.5191 50.4897 75.3137 51.4432 74.7999 52.0221C74.2519 52.601 73.43 52.9074 72.6422 52.9415C72.9847 53.4863 73.0532 54.2014 72.7792 54.8144C72.5052 55.4273 71.9573 55.87 71.3065 56.0062C71.4435 56.1424 71.4435 56.3808 71.3408 56.517C71.238 56.6532 70.9983 56.7213 70.8271 56.6532C70.8956 57.6067 70.4503 58.5601 69.6968 59.139C68.9434 59.7179 67.9159 59.8882 66.9912 59.6158C65.998 57.845 65.587 55.7338 65.861 53.7247C66.135 51.7156 67.1282 49.7746 68.6694 48.4806C70.2448 47.1526 72.3683 46.5056 74.3889 46.8121C76.4096 47.1185 78.3275 48.4125 79.218 50.2173Z" fill="#162A45"/>
<path d="M68.6694 58.6282C69.1831 59.4796 69.0803 60.3649 68.4639 60.7395C67.8474 61.1141 66.9227 60.7395 66.4089 59.8882C65.8952 59.0369 65.9637 58.0493 66.5802 57.6748C67.1967 57.3342 68.1556 57.811 68.6694 58.6282Z" fill="#82554C"/>
<path d="M67.0254 60.6033C67.0597 60.6033 67.0597 60.6373 67.0254 60.6033C67.0939 60.6373 67.1282 60.6714 67.1624 60.6714C67.2309 60.7054 67.2652 60.7395 67.3337 60.7735C67.0939 61.2503 66.957 61.9313 67.4707 62.2378C67.7104 62.374 67.9844 62.374 68.1899 62.2037C68.4297 61.9994 68.4981 61.6589 68.4639 61.3865C68.4297 61.046 68.2242 60.7735 67.9502 60.6033C67.7789 60.5011 67.9502 60.1946 68.1214 60.2968C68.4639 60.5011 68.7036 60.8076 68.7721 61.2162C68.8406 61.6249 68.7721 62.0675 68.4981 62.374C68.2584 62.6464 67.8474 62.7826 67.5049 62.6464C67.1624 62.5102 66.8885 62.2037 66.82 61.8292C66.7172 61.3865 66.8542 60.9779 67.0254 60.6033Z" fill="#FFA233"/>
<path d="M68.2241 59.9563C68.2926 59.9563 68.3611 59.8882 68.3954 59.8201C68.4296 59.7179 68.3611 59.6158 68.2584 59.6158C68.1214 59.5817 67.9502 59.4796 67.9159 59.3433C67.9159 59.2752 67.9159 59.2071 67.9159 59.139C67.9502 59.0369 67.9502 58.9688 67.9502 58.8326C67.9159 58.6282 67.8132 58.4239 67.6419 58.3218C67.4364 58.1515 67.1624 58.1175 66.9569 58.1856C66.6144 58.3218 66.4775 58.6964 66.5117 59.0028C66.5117 59.105 66.6144 59.1731 66.7172 59.139C66.8199 59.139 66.8884 59.0369 66.8542 58.9347C66.8199 58.7645 66.8884 58.5942 67.0254 58.5261C67.1282 58.492 67.2652 58.5261 67.3679 58.5942C67.4707 58.6623 67.5049 58.7645 67.5392 58.8666C67.5392 58.9347 67.5392 58.9688 67.5049 59.0369C67.4707 59.139 67.4707 59.2752 67.5049 59.4115C67.5734 59.6839 67.8132 59.9222 68.1556 59.9903C68.1899 59.9563 68.1899 59.9563 68.2241 59.9563Z" fill="#542C24"/>
<path d="M79.9715 53.4523C79.9715 53.4523 78.1563 53.4523 77.0946 53.8268C77.574 52.9074 79.218 53.0096 79.9715 53.4523Z" fill="#162A45"/>
<path d="M71.4093 54.8825C71.4093 54.8825 73.1217 54.3036 74.2519 54.3036C73.5327 53.5544 72.0257 54.2355 71.4093 54.8825Z" fill="#162A45"/>
<path d="M77.0603 59.0028H77.0946C77.4028 58.9006 77.6083 58.7304 77.6768 58.5261C77.7111 58.4239 77.7453 58.2196 77.6083 57.9812C77.5398 57.845 77.4028 57.7088 77.2658 57.5385C77.1288 57.4023 76.9918 57.2321 76.9576 57.1299C76.9234 57.0278 76.7864 57.0278 76.7179 57.0618C76.6151 57.0959 76.6151 57.2321 76.6494 57.3002C76.7179 57.4364 76.8549 57.6066 77.0261 57.7769C77.1631 57.9131 77.2658 58.0834 77.3343 58.1855C77.4028 58.3217 77.3686 58.3899 77.3686 58.3899C77.3343 58.492 77.1973 58.5942 77.0261 58.6623C76.9234 58.6963 76.8891 58.7985 76.9234 58.9006C76.8891 58.9687 76.9918 59.0028 77.0603 59.0028Z" fill="#542C24"/>
<path d="M78.4645 59.5817C77.3343 59.8541 76.1699 59.9903 74.9027 60.0584C75.7589 61.3524 78.2248 60.6714 78.4645 59.5817Z" fill="white"/>
<path d="M72.9162 56.5851C72.9847 56.3467 73.1902 56.1765 73.43 56.1424C73.7039 56.1084 73.9437 56.2105 74.1149 56.3808C74.2862 56.551 74.3889 56.7894 74.4917 57.0278C74.5259 57.1299 74.4574 57.2321 74.3547 57.2661C74.2519 57.3002 74.1492 57.2321 74.1149 57.1299C74.0807 57.0618 74.0464 56.9597 74.0122 56.8916C73.9779 56.8575 73.9437 56.7894 73.9437 56.7554C73.9437 56.7213 73.9094 56.7213 73.8752 56.6873C73.8067 56.6192 73.7724 56.5851 73.7039 56.551H73.6697C73.6354 56.551 73.6354 56.551 73.6012 56.517H73.567C73.5327 56.517 73.5327 56.517 73.4985 56.517H73.4642C73.43 56.517 73.4642 56.517 73.43 56.517C73.3957 56.551 73.3957 56.551 73.3615 56.5851L73.3272 56.6192L73.293 56.6532C73.293 56.6873 73.2587 56.6873 73.2587 56.7213V56.7554C73.1902 56.9256 73.2245 57.1299 73.2587 57.3002C73.2587 57.4024 73.2245 57.5045 73.1217 57.5386C73.019 57.5726 72.9162 57.5045 72.882 57.4024C72.882 57.0959 72.8477 56.8235 72.9162 56.5851Z" fill="#162A45"/>
<path d="M77.9508 55.7338C78.0193 55.4954 78.2248 55.3252 78.4645 55.2911C78.7385 55.257 78.9783 55.3592 79.1495 55.5295C79.3208 55.6997 79.4235 55.9381 79.5262 56.1765C79.5605 56.2786 79.492 56.3808 79.3893 56.4148C79.2865 56.4489 79.1838 56.3808 79.1495 56.2786C79.1153 56.2105 79.081 56.1084 79.0468 56.0403C79.0125 56.0062 78.9783 55.9381 78.9783 55.904C78.9783 55.87 78.944 55.87 78.9098 55.8359C78.8413 55.7678 78.807 55.7338 78.7385 55.6997H78.7043C78.67 55.6997 78.67 55.6997 78.6358 55.6657H78.6015C78.5673 55.6657 78.5673 55.6657 78.533 55.6657H78.4988C78.4645 55.6657 78.4988 55.6657 78.4645 55.6657C78.4303 55.6997 78.4303 55.6997 78.396 55.7338L78.3618 55.7678L78.3275 55.8019C78.3275 55.8359 78.2933 55.8359 78.2933 55.87V55.904C78.2248 56.0743 78.259 56.2786 78.2933 56.4489C78.2933 56.551 78.259 56.6532 78.1563 56.6873C78.0535 56.7213 77.9508 56.6532 77.9166 56.551C77.9166 56.2446 77.8481 55.9721 77.9508 55.7338Z" fill="#162A45"/>
<path d="M222.498 204.446C221.903 204.115 221.375 203.452 220.912 202.658C220.912 202.658 220.515 200.208 220.912 197.56C221.308 194.978 220.185 192.859 216.549 192.065C212.98 191.27 210.864 192.992 211.658 200.208C211.129 203.188 210.997 206.63 212.253 209.477H223.225C223.225 209.477 225.01 205.77 222.498 204.446Z" fill="#CFD8DC"/>
<path d="M232.149 165.781C232.149 165.781 232.149 172.931 228.117 180.28C224.019 187.762 218.929 198.024 218.929 198.024C218.929 198.024 215.558 201.334 213.376 195.839C213.376 195.839 214.897 176.771 218.4 169.753C221.903 162.735 232.149 165.781 232.149 165.781Z" fill="#FF8B66"/>
<path d="M284.832 142.41C284.832 142.41 291.376 169.952 295.541 177.235C295.541 177.235 294.615 180.28 290.054 181.207C290.054 181.207 275.842 160.286 274.917 151.414C273.992 142.609 284.832 142.41 284.832 142.41Z" fill="#FF8B66"/>
<path d="M287.939 148.898C286.22 153.069 272.736 153.334 272.736 153.334L271.678 151.811L271.414 151.414L269.298 148.302C269.298 148.302 247.022 126.454 242.725 128.242C242.593 128.308 242.461 128.374 242.329 128.441C239.354 130.559 239.09 142.278 235.52 161.875C235.19 163.729 234.463 165.913 233.868 167.37C233.802 167.502 233.736 167.701 233.669 167.833C233.339 168.694 233.141 169.224 233.141 169.224C219.524 174.719 215.095 163.861 215.095 163.861C215.095 163.861 215.227 163.53 215.492 163.067C215.558 162.934 215.624 162.802 215.69 162.669C216.417 161.08 217.541 158.366 217.541 156.909C217.541 155.32 217.541 153.798 217.475 152.341C217.475 152.209 217.475 152.076 217.475 151.944C217.475 147.243 217.475 143.138 217.475 139.563V139.166C217.475 137.643 217.541 136.187 217.541 134.796V134.399C217.673 128.176 217.871 124.071 218.069 121.29C218.069 121.158 218.069 121.025 218.069 120.893C218.466 116.259 218.863 115.795 218.863 115.795L216.153 96.8601H245.898C245.898 96.8601 250.393 101.362 256.144 107.254C256.276 107.387 256.408 107.519 256.475 107.586C258.59 109.704 260.837 112.021 263.085 114.405C263.151 114.471 263.283 114.603 263.349 114.67C264.275 115.597 265.134 116.523 266.059 117.45C266.192 117.583 266.258 117.649 266.39 117.781C269.364 120.893 272.273 123.939 274.719 126.587C274.785 126.653 274.917 126.785 274.983 126.852C278.354 130.493 280.932 133.472 281.858 134.796C284.237 138.438 286.022 143.072 287.08 145.985C287.146 146.118 287.146 146.25 287.212 146.383C287.675 147.971 287.939 148.898 287.939 148.898Z" fill="#8B383E"/>
<path d="M223.358 118.774C222.168 120.231 220.383 121.092 218.136 121.423C218.136 121.29 218.136 121.158 218.136 121.025C220.251 120.694 221.969 119.9 223.093 118.51C225.142 116.126 224.812 112.816 224.812 112.816L225.208 112.75C225.208 112.948 225.539 116.259 223.358 118.774Z" fill="#662C33"/>
<path d="M256.541 107.718C256.408 107.718 256.342 107.718 256.21 107.718C252.905 107.718 249.468 104.077 249.269 103.944L249.534 103.679C249.6 103.746 253.037 107.321 256.21 107.387C256.276 107.519 256.408 107.652 256.541 107.718Z" fill="#662C33"/>
<path d="M234 167.436C233.934 167.569 233.868 167.767 233.802 167.9C231.62 168.694 229.571 169.025 227.72 169.025C221.837 169.025 217.805 165.649 215.558 163.067C215.624 162.934 215.69 162.802 215.756 162.669C218.598 166.046 224.68 170.945 234 167.436Z" fill="#662C33"/>
<path d="M241.932 121.423C242.395 123.541 242.725 125.859 242.725 128.242C242.593 128.308 242.461 128.374 242.329 128.441C242.329 117.318 235.917 108.711 235.851 108.579L236.115 108.38C236.181 108.446 239.949 113.61 241.8 121.025C242.527 120.562 243.056 119.834 243.254 118.907C244.18 115.001 239.949 108.645 239.949 108.579L240.28 108.38C240.478 108.645 244.642 114.934 243.651 118.973C243.453 120.099 242.858 120.893 241.932 121.423Z" fill="#662C33"/>
<path d="M275.049 127.05C273.925 128.242 272.934 129.235 272.802 129.367L272.603 129.566L272.537 129.301C271.083 125.527 261.829 117.384 261.763 117.252L261.63 117.119L263.151 114.537C263.217 114.603 263.349 114.736 263.415 114.802L262.093 116.921C263.878 117.516 265.2 117.649 266.059 117.516C266.192 117.649 266.258 117.715 266.39 117.848C266.059 117.914 265.795 117.914 265.398 117.914C264.539 117.914 263.614 117.715 262.556 117.45C264.671 119.37 271.149 125.395 272.669 128.772C273.264 128.176 273.992 127.447 274.719 126.653C274.851 126.852 274.983 126.918 275.049 127.05Z" fill="#662C33"/>
<path d="M224.283 152.275H224.151C224.019 152.341 222.366 152.672 220.449 152.672C219.458 152.672 218.466 152.606 217.541 152.341C217.541 152.209 217.541 152.076 217.541 151.944C219.986 152.672 223.225 152.076 223.953 151.944L223.358 136.65C223.027 137.511 222.3 138.636 221.044 139.298C220.449 139.629 219.722 139.762 218.995 139.762C218.532 139.762 218.069 139.696 217.607 139.629V139.232C218.863 139.497 219.986 139.431 220.912 138.967C222.498 138.173 223.093 136.518 223.292 135.856C222.036 136.054 219.59 135.392 217.739 134.863V134.465C219.788 135.061 222.498 135.789 223.49 135.458L223.754 135.392L224.283 152.275Z" fill="#662C33"/>
<path d="M287.212 146.581C285.097 148.7 280.734 151.944 273.992 151.944C273.264 151.944 272.537 151.878 271.744 151.811L271.48 151.414C279.676 152.341 284.766 148.501 287.08 146.25C287.146 146.316 287.212 146.449 287.212 146.581Z" fill="#662C33"/>
<path d="M251.385 16.4192C251.385 16.4192 250.592 14.5654 247.088 14.5654C244.444 14.5654 243.386 16.022 243.386 16.022C241.8 20.6564 240.081 38.5322 239.486 39.128C239.156 39.4591 219.458 52.7666 219.458 52.7666C230.166 52.9652 236.842 66.2065 236.842 66.2065C237.173 61.8368 249.27 44.6894 249.402 43.1004C249.732 40.1873 254.822 27.2771 251.385 16.4192Z" fill="#CE364C"/>
<path d="M217.21 109.572C217.21 109.572 217.144 113.279 218.334 113.544C219.524 113.809 229.307 116.656 240.544 111.558C251.781 106.46 253.764 102.62 250.459 99.8394C247.154 97.0587 217.21 109.572 217.21 109.572Z" fill="#CE364C"/>
<path d="M212.649 55.2824C212.649 55.2824 202.403 54.0907 196.52 56.6065C196.52 56.6065 194.868 63.8892 202.932 80.176C210.997 96.4628 209.146 106.725 218.202 110.565C226.266 114.008 250.063 103.812 250.79 100.435C252.641 91.9608 238.098 76.9981 237.239 68.3251C236.38 59.7182 227.919 46.7418 212.649 55.2824Z" fill="#F24052"/>
<path d="M196.586 56.6065C189.447 59.1224 181.383 67.1996 181.383 71.1058C181.383 75.0119 188.125 76.4685 188.125 76.4685L199.164 71.1058C199.164 71.1058 202.337 68.9209 200.288 62.4989C198.239 56.0107 196.586 56.6065 196.586 56.6065Z" fill="#CE364C"/>
<path d="M225.936 63.823C223.82 63.823 221.176 63.0286 219.524 61.9031C218.598 61.241 218.07 60.5127 217.937 59.7844C217.541 57.2686 219.986 55.9445 220.119 55.8783L220.449 56.5403C220.383 56.6065 218.334 57.6658 218.664 59.652C218.731 60.1817 219.193 60.7775 219.92 61.3072C221.771 62.6313 224.944 63.4258 227.059 63.0286C227.985 62.8961 228.58 62.4989 228.91 62.0355C229.241 61.4396 228.976 60.7113 228.976 60.7113L229.637 60.4465C229.637 60.5127 230.034 61.4396 229.571 62.3665C229.175 63.0948 228.381 63.5582 227.258 63.7568C226.795 63.7568 226.398 63.823 225.936 63.823Z" fill="#CFD8DC"/>
<path d="M216.88 71.5692C215.293 71.5692 212.649 70.9071 212.319 68.3251C212.12 67.0009 212.253 65.8754 212.385 64.9485C212.517 63.492 212.649 62.3665 211.856 61.0424C210.468 58.7913 208.617 58.6589 208.551 58.6589L208.617 57.9307C208.683 57.9307 210.931 58.0631 212.517 60.6451C213.509 62.2341 213.31 63.5582 213.178 65.0148C213.046 66.0078 212.98 67.0009 213.112 68.2589C213.508 71.0395 217.078 70.9071 217.21 70.9071L217.276 71.6354C217.078 71.5692 217.012 71.5692 216.88 71.5692Z" fill="#CFD8DC"/>
<path d="M219.127 58.3941C219.127 58.3941 224.547 54.6866 223.225 50.7142C221.97 46.7418 204.519 47.0066 200.024 51.7735C195.529 56.5403 209.741 59.7183 209.741 59.7183C210.864 57.4672 217.871 57.2024 219.127 58.3941Z" fill="#CE364C"/>
<path d="M209.41 57.7321C206.832 56.8714 205.312 55.0176 205.841 52.8328C206.369 50.7142 217.408 50.648 219.524 52.3693C221.639 54.0907 218.664 60.91 209.41 57.7321Z" fill="#A02E44"/>
<path d="M208.154 51.7073C208.154 51.7073 210.402 55.6135 209.344 57.7321C209.344 57.7321 217.144 60.4465 217.144 56.0769C217.144 56.0769 215.69 52.8328 216.219 50.7142L208.154 51.7073Z" fill="#EF6E4B"/>
<path d="M205.576 48.3307C205.576 48.3307 201.742 42.1735 202.073 36.3474C202.271 33.4343 203.725 32.2426 203.725 32.2426C203.725 32.2426 202.536 30.5212 203.792 27.9391C203.792 27.9391 205.576 30.0578 211.922 29.3957C218.003 28.7336 218.664 33.1033 218.664 33.1033C223.027 33.7653 220.053 47.0066 217.012 48.3307H205.576Z" fill="#FFB878"/>
<path d="M203.924 42.637C203.924 42.637 201.742 40.4522 201.478 43.0342C201.147 46.0135 203.858 47.2052 204.386 46.2784C204.915 45.2853 203.924 42.637 203.924 42.637Z" fill="#FF8B66"/>
<path d="M219.325 42.7694C219.325 42.7694 221.507 40.5846 221.771 43.1666C222.102 46.1459 219.392 47.3376 218.863 46.4107C218.4 45.4838 219.325 42.7694 219.325 42.7694Z" fill="#FF8B66"/>
<path d="M211.393 53.4286C206.502 53.4286 203.725 50.2507 203.725 40.6508C203.725 35.6853 206.237 32.706 211.724 32.706C217.21 32.706 219.524 35.7515 219.524 40.6508C219.524 50.979 216.483 53.4286 211.393 53.4286Z" fill="#FF8B66"/>
<path d="M216.973 45.1971C217.585 45.0903 218.009 44.5949 217.921 44.0906C217.833 43.5863 217.266 43.2641 216.655 43.371C216.044 43.4778 215.619 43.9733 215.707 44.4775C215.795 44.9818 216.362 45.304 216.973 45.1971Z" fill="#DB614D"/>
<path d="M206.709 45.2194C207.328 45.2598 207.857 44.8785 207.89 44.3677C207.923 43.8568 207.448 43.4099 206.829 43.3695C206.21 43.329 205.681 43.7103 205.647 44.2212C205.614 44.732 206.089 45.1789 206.709 45.2194Z" fill="#DB614D"/>
<path d="M215.756 38.9294C215.69 38.9294 215.624 38.9294 215.558 38.8632C214.764 38.2673 213.641 38.466 213.575 38.466C213.442 38.466 213.31 38.3998 213.31 38.2673C213.31 38.1349 213.376 38.0025 213.508 38.0025C213.575 38.0025 214.897 37.7377 215.888 38.466C216.02 38.5322 216.02 38.7308 215.954 38.797C215.888 38.9294 215.822 38.9294 215.756 38.9294Z" fill="#FFB878"/>
<path d="M206.436 38.9956C206.37 38.9956 206.303 38.9294 206.303 38.9294C206.237 38.797 206.237 38.6646 206.37 38.5984C207.295 37.8701 208.617 38.0687 208.683 38.0687C208.815 38.0687 208.881 38.2012 208.881 38.3336C208.881 38.466 208.749 38.5322 208.617 38.5322C208.617 38.5322 207.427 38.3336 206.7 38.9956C206.568 38.9956 206.502 38.9956 206.436 38.9956Z" fill="#FFB878"/>
<path d="M214.632 42.8356C214.961 42.8356 215.227 42.3317 215.227 41.7101C215.227 41.0885 214.961 40.5846 214.632 40.5846C214.304 40.5846 214.037 41.0885 214.037 41.7101C214.037 42.3317 214.304 42.8356 214.632 42.8356Z" fill="#1A4850"/>
<path d="M208.154 42.8356C208.483 42.8356 208.749 42.3317 208.749 41.7101C208.749 41.0885 208.483 40.5846 208.154 40.5846C207.826 40.5846 207.559 41.0885 207.559 41.7101C207.559 42.3317 207.826 42.8356 208.154 42.8356Z" fill="#1A4850"/>
<path d="M205.246 33.7653C205.246 33.7653 210.468 35.6853 217.937 35.1556C217.937 35.1556 219.524 37.1418 219.325 44.1597C219.325 44.1597 223.688 31.5143 210.931 31.5143C198.173 31.5143 203.924 43.8287 203.924 43.8287C203.924 43.8287 202.932 36.0825 205.246 33.7653Z" fill="#FFB878"/>
<path d="M211.724 44.9542L211.327 44.557L212.319 43.5639C211.393 42.2397 211.393 39.1942 211.393 39.0618H211.922C211.922 39.0618 211.922 42.3722 212.847 43.4315L213.046 43.6301L211.724 44.9542Z" fill="#DB614D"/>
<path d="M208.485 46.5432C208.485 46.5432 213.31 46.7418 215.69 46.0797C215.69 46.0797 216.086 49.5887 212.385 49.7873C208.485 49.9859 208.485 46.5432 208.485 46.5432Z" fill="#1A4850"/>
<path d="M229.042 59.7844C229.968 59.5858 229.836 62.0355 229.042 61.3072C228.183 60.6451 228.117 59.9831 229.042 59.7844Z" fill="#CFD8DC"/>
<path d="M217.937 71.4368C217.805 72.3637 215.558 71.503 216.483 70.9071C217.475 70.3775 218.136 70.5099 217.937 71.4368Z" fill="#CFD8DC"/>
<path d="M208.088 76.4685C208.088 76.4685 206.634 80.2422 206.7 82.2946C206.766 84.4133 207.493 84.1484 207.493 84.1484C207.493 84.1484 206.37 84.6119 206.171 85.8036C205.973 86.9953 209.014 87.9222 209.212 87.9222C209.41 87.9222 211.592 87.1277 211.592 87.1277L212.054 80.2422L210.137 79.0505L208.088 76.4685Z" fill="#EF6E4B"/>
<path d="M209.278 76.005C209.278 76.005 211.922 77.6602 212.98 78.6533C214.037 79.6464 213.442 87.4587 212.98 87.856C212.517 88.2532 209.146 88.9815 208.485 88.5843C207.824 88.187 208.749 85.8698 208.749 85.8698C208.749 85.8698 210.468 85.4726 210.203 86.1346C209.939 86.7967 210.203 87.3263 210.203 87.3263L210.931 87.0615C210.931 87.0615 210.6 85.3401 210.931 84.016C211.261 82.7581 208.551 81.3678 208.22 79.0505C207.824 76.6009 209.278 76.005 209.278 76.005Z" fill="#FF8B66"/>
<path d="M181.78 72.1651C180.92 68.5237 184.556 67.1996 189.646 67.7954C195.529 68.5237 207.559 70.0465 210.203 76.4023C210.203 76.4023 211.063 78.9181 208.815 80.1098C202.668 83.5526 183.366 79.0505 181.78 72.1651Z" fill="#CE364C"/>
<path d="M200.156 69.7816C200.156 69.7816 193.149 66.8685 189.646 66.6037C186.209 66.2727 194.471 69.3182 200.156 69.7816Z" fill="#A02E44"/>
<path d="M252.641 6.62066C252.112 7.21652 251.253 9.59995 251.253 9.59995C250.856 11.5861 250.658 12.6454 249.997 13.5723C249.336 14.4992 249.666 16.0882 249.666 16.0882C249.666 16.0882 247.022 17.4785 244.775 15.7571C244.775 15.7571 245.039 14.1682 244.775 13.7048C244.312 12.7779 242.858 12.3144 242.329 10.5268C241.8 8.73927 240.28 6.68687 240.28 6.68687C240.28 6.68687 240.742 5.75997 241.536 6.28963C242.329 6.88548 242.858 8.34203 243.254 8.47444C243.32 8.47444 243.453 8.54065 243.519 8.54065C243.849 8.60685 244.18 8.54065 244.378 8.34203C244.378 8.34203 244.444 8.34203 244.444 8.27582C245.171 7.41514 245.369 4.9655 245.303 3.83999C245.237 2.31724 245.303 0.132426 246.229 0.529665C247.154 0.860697 246.295 1.72138 247.022 5.16412L247.353 5.23032C247.419 5.49515 248.08 3.17792 248.212 0.99311C248.344 -0.529639 249.269 0.0662194 249.534 0.529665C249.732 0.99311 249.402 2.51586 249.336 3.57516C249.27 4.30343 249.203 5.0317 249.203 5.49515L249.6 5.69377C251.054 3.11172 250.592 2.05241 251.451 1.98621C252.31 1.92 251.98 4.10481 251.517 4.9655C251.319 5.29653 251.12 6.09101 250.988 6.81928C252.508 5.0317 252.31 4.17102 253.037 4.23723C253.764 4.30343 253.103 6.0248 252.641 6.62066Z" fill="#FF8B66"/>
<path d="M246.031 10.7254C245.502 9.33509 243.651 8.67303 243.453 8.60682C243.783 8.67303 244.114 8.60682 244.312 8.4082C246.163 9.13647 246.031 10.7254 246.031 10.7254Z" fill="#EF6E4B"/>
<path d="M214.17 198.686C214.17 198.686 213.178 196.633 214.037 195.706C214.963 194.846 216.02 196.501 217.541 196.104C219.061 195.706 219.458 194.647 219.854 196.104C220.251 197.693 219.788 202.393 214.17 198.686Z" fill="#CFD8DC"/>
<path d="M219.986 198.619C219.986 198.619 215.822 200.076 213.707 198.619L214.236 200.407C214.236 200.407 218.731 200.87 219.392 199.745L219.986 198.619Z" fill="#ADBEC4"/>
<path d="M219.92 200.87C219.92 200.87 216.086 200.341 214.302 201.268V202.128C214.302 202.128 219.259 200.937 220.846 202.128L219.92 200.87Z" fill="#ADBEC4"/>
<path d="M214.103 204.048C214.103 204.048 214.831 202.261 217.144 202.128C219.458 201.996 221.044 203.254 221.044 203.254C221.044 203.254 217.342 201.731 214.103 204.048Z" fill="#ADBEC4"/>
<path d="M312 179.022C304.729 188.755 294.747 190.675 294.747 190.675C291.839 188.357 291.773 185.643 291.773 185.643C291.773 185.643 288.997 183.127 288.6 181.935C288.203 180.744 290.98 177.169 292.632 177.5C293.756 177.764 294.417 178.691 294.747 179.221C293.359 176.109 294.483 175.05 296.4 175.315C298.449 175.58 296.532 176.043 297.986 177.698C298.119 177.831 298.185 177.897 298.317 178.029C298.581 178.228 298.912 178.36 299.242 178.426C299.573 178.493 299.903 178.493 300.3 178.493C300.498 178.493 300.697 178.493 300.895 178.426C301.292 178.36 301.622 178.294 302.019 178.162C302.614 177.963 303.275 177.698 303.87 177.367C306.381 175.977 307.439 175.513 309.356 175.977C311.273 176.44 311.273 177.897 311.273 177.897L312 179.022Z" fill="#CFD8DC"/>
<path d="M312 179.022C304.729 188.755 294.747 190.675 294.747 190.675C299.837 188.49 304.464 185.643 307.637 182.134C310.876 178.559 312 179.022 312 179.022Z" fill="#ADBEC4"/>
<path d="M298.383 178.029C298.647 178.228 298.978 178.36 299.308 178.426C297.392 178.824 297.259 180.545 297.259 180.545L296.466 180.28C296.598 178.162 298.251 178.029 298.383 178.029Z" fill="#ADBEC4"/>
<path d="M299.639 180.677H298.78C298.449 179.486 298.846 178.757 299.308 178.294C299.639 178.36 299.97 178.36 300.366 178.36C299.308 179.42 299.639 180.677 299.639 180.677Z" fill="#ADBEC4"/>
<path d="M301.754 180.214L300.895 180.346C300.564 179.486 300.631 178.824 300.895 178.36C301.292 178.294 301.622 178.228 302.019 178.095C301.358 179.155 301.754 180.214 301.754 180.214Z" fill="#ADBEC4"/>
<path d="M220.053 89.5774C220.053 89.5774 221.969 99.7732 218.136 103.812C214.302 107.85 216.814 104.54 218.003 99.3097C219.127 94.0794 218.268 88.5843 220.053 89.5774Z" fill="#CE364C"/>
<path d="M237.636 85.0091C237.636 85.0091 243.651 86.9953 246.758 92.5567C246.824 92.5567 242.593 83.5526 237.636 85.0091Z" fill="#CE364C"/>
<path d="M81.6356 9.33513C82.4288 9.33513 84.7424 10.262 84.7424 10.262C86.461 11.3213 87.3864 11.9172 88.5102 11.9834C89.6339 12.1158 90.0966 14.0358 90.0966 14.0358C90.0966 14.0358 94.5254 15.0289 94.7898 12.182C94.7898 12.182 92.278 8.67307 92.1458 8.20962C91.8153 7.28273 92.4102 5.82619 91.4187 4.23723C90.4271 2.64828 89.9644 0.132433 89.9644 0.132433C89.9644 0.132433 88.9729 -0.198599 88.8407 0.794497C88.7085 1.78759 89.4356 3.11172 89.3034 3.57517C89.2373 3.64138 89.2373 3.70758 89.1712 3.83999C88.9729 4.10482 88.7085 4.30344 88.4441 4.30344H88.378C87.2542 4.30344 85.3373 2.71448 84.5441 1.98621C83.4203 0.92691 81.8339 -0.463425 81.4373 0.463465C81.0407 1.39036 82.2966 1.32415 84.3458 4.17103L84.1475 4.43585C84.2797 4.63447 82.1644 3.57517 80.4458 2.25104C79.2559 1.32415 78.9915 2.44966 79.2559 2.9131C79.4542 3.37655 80.7763 4.17103 81.6356 4.83309C82.2305 5.29654 82.7593 5.75998 83.1559 6.02481L83.0237 6.48825C80.1153 5.82619 79.6525 4.76689 79.0576 5.36274C78.4627 5.9586 80.2475 7.21652 81.1729 7.41514C81.5695 7.48135 82.2305 7.87859 82.8915 8.27583C80.578 8.20962 79.9831 7.48135 79.5864 8.07721C79.1237 8.67307 80.8424 9.33513 81.6356 9.33513Z" fill="#926041"/>
<path d="M89.039 7.2165C88.3119 5.89237 89.1051 4.10479 89.1712 3.83997C88.9729 4.10479 88.7085 4.30341 88.4441 4.30341C87.7831 6.2234 89.039 7.2165 89.039 7.2165Z" fill="#765139"/>
<path d="M212.385 9.33513C211.592 9.33513 209.278 10.262 209.278 10.262C207.559 11.3213 206.634 11.9172 205.51 11.9834C204.386 12.1158 203.924 14.0358 203.924 14.0358C203.924 14.0358 199.495 15.0289 199.231 12.182C199.231 12.182 201.742 8.67307 201.875 8.20962C202.205 7.28273 201.61 5.82619 202.602 4.23723C203.593 2.64828 204.056 0.132433 204.056 0.132433C204.056 0.132433 205.047 -0.198599 205.18 0.794497C205.312 1.78759 204.585 3.11172 204.717 3.57517C204.783 3.64138 204.783 3.70758 204.849 3.83999C205.047 4.10482 205.312 4.30344 205.576 4.30344H205.642C206.766 4.30344 208.683 2.71448 209.476 1.98621C210.6 0.92691 212.186 -0.463425 212.583 0.463465C212.98 1.39036 211.724 1.32415 209.675 4.17103L209.873 4.43585C209.741 4.63447 211.856 3.57517 213.575 2.25104C214.764 1.32415 215.029 2.44966 214.764 2.9131C214.566 3.37655 213.244 4.17103 212.385 4.83309C211.79 5.29654 211.261 5.75998 210.864 6.02481L210.997 6.48825C213.905 5.82619 214.368 4.76689 214.963 5.36274C215.558 5.9586 213.773 7.21652 212.847 7.41514C212.451 7.48135 211.79 7.87859 211.129 8.27583C213.442 8.20962 214.037 7.48135 214.434 8.07721C214.897 8.67307 213.178 9.33513 212.385 9.33513Z" fill="#926041"/>
<path d="M204.981 7.2165C205.709 5.89237 204.915 4.10479 204.849 3.83997C205.047 4.10479 205.312 4.30341 205.576 4.30341C206.237 6.2234 204.981 7.2165 204.981 7.2165Z" fill="#765139"/>
<path d="M173.319 144.33L164.792 91.3649L147.671 93.2849L130.551 91.3649L122.024 144.33L117.925 195.706C117.925 195.706 119.247 199.944 127.775 197.03C127.775 197.03 134.12 149.362 135.112 148.369C136.103 147.309 146.151 116.192 146.151 116.192H149.324C149.324 116.192 159.371 147.309 160.363 148.369C161.354 149.428 167.7 197.03 167.7 197.03C176.227 199.944 177.549 195.706 177.549 195.706L173.319 144.33Z" fill="#0E3944"/>
<path d="M142.317 40.0549C143.375 41.1142 148.729 43.0342 151.505 40.0549L153.422 41.9087C153.422 41.9087 151.241 47.0066 147.473 47.2052C143.639 47.4039 140.929 42.637 140.929 42.637L142.317 40.0549Z" fill="#0C476B"/>
<path d="M157.388 39.5253C163.734 36.8108 184.292 29.4619 184.292 29.4619C184.292 29.4619 198.107 12.1158 200.949 9.53375C200.949 9.53375 203.99 10.0634 204.915 13.9034C204.915 13.9034 195.992 32.9708 191.166 38.466C186.341 43.8949 161.817 55.7459 161.817 55.7459L157.388 39.5253Z" fill="#0E3944"/>
<path d="M135.112 39.128C137.029 37.9363 146.481 44.2921 146.481 44.2921C146.481 44.2921 158.842 37.7377 161.751 38.9956C161.751 38.9956 164.395 42.5046 165.386 51.5086C166.444 60.5127 166.51 97.5221 166.51 97.5221C166.51 97.5221 158.181 100.435 146.944 100.435C134.12 100.435 127.246 96.7277 127.246 96.7277C127.246 96.7277 124.998 45.4839 135.112 39.128Z" fill="#D0D0D0"/>
<path d="M152.364 41.4453C152.364 41.4453 160.958 68.2589 161.817 90.0408C161.817 90.0408 164.924 90.9015 168.427 86.1346C171.931 81.3678 169.815 43.4977 163.139 37.2081C163.139 37.2081 160.098 36.4798 152.364 41.4453Z" fill="#105E99"/>
<path d="M153.753 46.1459C153.753 46.1459 155.273 42.5708 154.612 40.1211C153.951 37.6715 151.505 40.1211 151.505 40.1211C151.505 40.1211 152.497 44.0935 153.753 46.1459Z" fill="#0C476B"/>
<path d="M136.434 39.5253C130.088 36.8108 109.531 29.4619 109.531 29.4619C109.531 29.4619 95.6492 11.6524 92.8729 9.07031C92.8729 9.07031 89.3695 11.0565 89.1712 15.1613C89.1712 15.1613 97.8966 33.0371 102.722 38.5322C107.547 44.0273 132.071 55.8121 132.071 55.8121L136.434 39.5253Z" fill="#0E3944"/>
<path d="M141.458 41.4453C141.458 41.4453 132.864 68.2589 132.005 90.0408C132.005 90.0408 128.898 90.9015 125.395 86.1346C121.892 81.3678 124.007 43.4977 130.683 37.2081C130.683 37.2081 133.724 36.4798 141.458 41.4453Z" fill="#105E99"/>
<path d="M140.07 46.1459C140.07 46.1459 138.549 42.5708 139.21 40.1211C139.871 37.6715 142.317 40.1211 142.317 40.1211C142.317 40.1211 141.325 44.0935 140.07 46.1459Z" fill="#0C476B"/>
<path d="M185.019 209.477H167.898C166.708 202.658 168.625 195.839 168.625 195.839L176.425 194.515C177.153 198.818 178.012 200.539 179.202 201.4C180.061 202.062 181.119 202.261 182.375 202.658C183.829 203.188 184.622 204.115 185.019 205.108C185.812 207.16 185.019 209.477 185.019 209.477Z" fill="#662C33"/>
<path d="M185.085 205.174C180.854 205.703 171.6 206.63 172.129 204.181C172.592 202.128 176.492 201.599 179.202 201.466C180.061 202.128 181.119 202.327 182.375 202.724C183.895 203.188 184.688 204.115 185.085 205.174Z" fill="#8B383E"/>
<path d="M127.708 209.477H110.588C110.588 209.477 110.059 207.888 110.324 206.167C110.522 204.777 111.249 203.32 113.232 202.658C114.686 202.128 115.876 201.93 116.802 201.069C117.793 200.142 118.586 198.355 119.181 194.515L126.981 195.839C127.047 195.839 128.898 202.658 127.708 209.477Z" fill="#662C33"/>
<path d="M110.324 206.167C110.522 204.777 111.249 203.32 113.232 202.658C114.686 202.128 115.876 201.93 116.802 201.069C118.983 201.731 122.024 202.989 122.949 204.843C124.205 207.425 114.224 207.028 110.324 206.167Z" fill="#8B383E"/>
<path d="M250.592 208.286C250.592 209.014 250.525 209.543 250.525 209.543H229.703C229.703 209.146 229.703 208.749 229.703 208.286C229.968 202.857 231.686 198.09 231.686 198.09L236.908 195.839C237.371 198.553 238.495 200.208 239.949 201.334C240.346 201.665 240.742 201.863 241.139 202.128C241.337 202.261 241.536 202.327 241.734 202.393C242.197 202.592 242.593 202.724 243.056 202.857C244.907 203.386 246.758 203.519 248.014 203.717C250.261 204.115 250.592 206.697 250.592 208.286Z" fill="#164353"/>
<path d="M250.592 208.286C250.592 209.014 250.525 209.543 250.525 209.543H229.703C229.703 209.146 229.703 208.749 229.703 208.286H250.592Z" fill="#225866"/>
<path d="M241.139 202.128L238.23 203.055L237.636 201.996L239.949 201.334C240.346 201.665 240.742 201.93 241.139 202.128Z" fill="#225866"/>
<path d="M243.056 202.923L241.139 204.247L239.949 203.783L241.734 202.459C242.13 202.592 242.593 202.79 243.056 202.923Z" fill="#225866"/>
<path d="M171.137 208.286C171.071 209.014 170.873 209.543 170.873 209.543H156.992C156.793 209.146 156.661 208.749 156.595 208.286C155.207 201.665 164.461 193.521 164.461 193.521L167.369 197.428C167.369 197.428 167.039 203.651 169.485 204.975C171.071 205.77 171.269 207.226 171.137 208.286Z" fill="#164353"/>
<path d="M156.661 208.286H171.137C171.071 209.014 170.873 209.543 170.873 209.543H156.992C156.925 209.08 156.793 208.683 156.661 208.286Z" fill="#225866"/>
<path d="M168.956 204.446C168.956 204.446 163.139 203.121 160.429 204.843V203.916C160.429 203.916 165.386 201.532 168.956 204.446Z" fill="#225866"/>
<path d="M167.766 202.989C167.766 202.989 164.064 201.268 160.429 202.989L160.825 201.996C160.892 201.996 165.188 200.341 167.766 202.989Z" fill="#225866"/>
<path d="M244.312 149.229C244.312 154.791 239.354 200.275 239.354 200.275C234.397 200.738 230.431 199.745 230.431 199.745C229.042 176.705 228.91 156.843 228.91 156.843L205.18 139.034L205.114 138.967C205.114 138.967 205.047 139.365 204.849 140.093C203.659 145.323 198.702 167.171 196.653 172.203C194.273 177.897 168.559 201.864 168.559 201.864C163.8 201.201 159.702 197.759 159.702 197.759C168.956 182.399 181.581 166.973 181.581 166.973C182.573 161.411 183.3 149.097 183.697 139.894C183.697 139.762 183.697 139.629 183.697 139.497C183.961 133.274 184.093 128.573 184.093 128.573L179.73 119.635L207.361 109.505L213.575 117.45C213.575 117.45 214.963 118.774 217.21 120.893C217.342 120.959 217.408 121.092 217.541 121.158C225.869 129.103 244.312 146.78 244.312 149.229Z" fill="#8BBDDB"/>
<path d="M183.763 140.027C183.763 139.894 183.763 139.762 183.763 139.629C189.58 136.452 188.588 131.42 188.588 131.354L188.919 131.287C188.985 131.354 190.042 136.783 183.763 140.027Z" fill="#6097B2"/>
<path d="M204.849 135.591C205.047 136.716 205.18 137.908 205.246 139.166L205.18 139.1C205.18 139.1 205.114 139.497 204.915 140.225C204.651 131.552 201.081 126.454 201.081 126.388L201.412 126.19C201.478 126.256 203.725 129.5 204.783 135.127C209.014 131.42 204.849 123.74 204.849 123.674L205.18 123.475C205.18 123.607 209.542 131.685 204.849 135.591Z" fill="#6097B2"/>
<path d="M217.607 121.224C217.408 121.29 217.21 121.356 217.012 121.356C214.963 121.356 211.591 118.51 211.393 118.377L211.658 118.112C212.781 119.039 215.888 121.29 217.342 120.959C217.408 121.025 217.475 121.158 217.607 121.224Z" fill="#6097B2"/>
<path d="M181.78 72.165C181.78 72.165 190.175 70.8409 194.405 73.4892C198.636 76.2036 204.122 83.1553 204.122 83.1553C204.122 83.1553 197.578 84.016 196.851 88.4518C196.851 88.518 192.091 77.1967 181.78 72.165Z" fill="#ADBEC4"/>
<path d="M169.154 76.6009C165.585 78.5209 159.636 85.7374 159.371 90.1732C159.107 94.4766 162.28 98.5152 164.461 101.892C171.203 112.485 178.276 121.82 181.317 134.2C181.317 134.267 196.719 140.424 214.764 118.642C214.764 118.642 204.585 104.871 201.015 93.1525C199.561 88.3856 198.107 83.3539 195.33 79.1167C192.29 74.4823 187.068 71.7678 181.714 72.2312C177.219 72.5623 172.658 74.6809 169.154 76.6009Z" fill="#CFD8DC"/>
<path d="M167.7 72.165C167.7 72.165 169.947 76.0712 168.89 78.1898C168.89 78.1898 176.69 80.9043 176.69 76.5347C176.69 76.5347 175.236 73.2905 175.764 71.1719L167.7 72.165Z" fill="#EF6E4B"/>
<path d="M185.019 98.78C185.019 98.78 180.656 100.038 179.598 101.561C178.475 103.083 177.549 106.526 177.549 106.526H185.019L186.407 103.944L188.059 100.501L185.019 98.78Z" fill="#EF6E4B"/>
<path d="M177.814 67.7954C177.814 67.7954 180.854 66.5375 178.871 57.3348C177.549 51.2438 175.698 50.3831 174.442 50.3169C174.442 50.3169 172.988 48.0659 167.832 49.1252C164.329 49.8534 161.486 52.0383 160.23 56.0107C158.908 60.1817 161.553 69.0533 164.924 69.914L177.814 67.7954Z" fill="#164353"/>
<path d="M178.541 61.572C178.541 61.572 180.458 58.9238 181.185 61.5058C182.044 64.5513 179.4 66.2727 178.673 65.412C178.012 64.5513 178.541 61.572 178.541 61.572Z" fill="#FF8B66"/>
<path d="M162.478 64.4189C162.478 64.4189 159.834 62.4989 159.966 65.2134C160.164 68.3913 163.205 69.1858 163.536 68.0602C163.932 67.0009 162.478 64.4189 162.478 64.4189Z" fill="#FF8B66"/>
<path d="M172.592 74.1512C177.681 73.2905 179.995 69.5168 178.342 59.5196C177.483 54.3555 174.376 51.641 168.625 52.5679C162.941 53.4948 161.024 57.07 161.883 62.2341C163.734 72.9595 167.303 75.0119 172.592 74.1512Z" fill="#FF8B66"/>
<path d="M165.424 64.5631C164.767 64.557 164.23 64.9671 164.225 65.479C164.221 65.9909 164.75 66.4108 165.407 66.4169C166.064 66.4229 166.6 66.0128 166.605 65.5009C166.61 64.989 166.081 64.5691 165.424 64.5631Z" fill="#DB614D"/>
<path d="M175.696 62.9039C175.056 63.053 174.631 63.5781 174.747 64.0767C174.862 64.5753 175.475 64.8586 176.115 64.7094C176.755 64.5603 177.18 64.0352 177.064 63.5366C176.949 63.038 176.336 62.7547 175.696 62.9039Z" fill="#DB614D"/>
<path d="M165.651 59.9168C165.585 59.9168 165.519 59.9169 165.519 59.8506C165.386 59.7844 165.386 59.5858 165.453 59.5196C166.18 58.4603 167.568 58.2617 167.634 58.2617C167.766 58.2617 167.898 58.3279 167.898 58.4603C167.898 58.5927 167.832 58.7251 167.7 58.7251C167.7 58.7251 166.444 58.9238 165.849 59.7844C165.783 59.9169 165.717 59.9168 165.651 59.9168Z" fill="#1A4850"/>
<path d="M175.236 58.3279C175.169 58.3279 175.103 58.3279 175.103 58.2617C174.31 57.6658 173.054 57.8644 173.054 57.8644C172.922 57.8644 172.79 57.7982 172.724 57.6658C172.724 57.5334 172.79 57.401 172.922 57.3348C172.988 57.3348 174.376 57.07 175.434 57.7982C175.566 57.8644 175.566 58.0631 175.5 58.1293C175.368 58.3279 175.302 58.3279 175.236 58.3279Z" fill="#1A4850"/>
<path d="M166.986 61.3277C166.626 61.3872 166.42 61.9619 166.527 62.6114C166.634 63.2608 167.013 63.739 167.373 63.6794C167.734 63.6199 167.939 63.0452 167.832 62.3958C167.725 61.7464 167.346 61.2682 166.986 61.3277Z" fill="#1A4850"/>
<path d="M173.775 60.1391C173.415 60.1986 173.21 60.7733 173.317 61.4227C173.424 62.0721 173.802 62.5503 174.163 62.4908C174.523 62.4313 174.728 61.8566 174.621 61.2072C174.514 60.5577 174.135 60.0796 173.775 60.1391Z" fill="#1A4850"/>
<path d="M175.302 67.1996C175.302 67.1996 170.873 68.3913 168.427 67.9278C168.427 67.9278 170.146 70.0464 172.525 69.4506C174.971 68.7885 175.302 67.1996 175.302 67.1996Z" fill="#1A4850"/>
<path d="M175.5 54.8851C175.5 54.8851 169.749 59.0561 162.544 59.3872L162.742 65.8092C162.742 65.8092 156 53.3624 169.353 51.1776C182.639 48.9928 178.805 62.8299 178.805 62.8299C178.805 62.8299 178.342 56.8713 175.5 54.8851Z" fill="#0E3944"/>
<path d="M170.807 65.4782L170.741 64.9485C170.741 64.9485 171.534 64.8823 171.732 64.4189C171.798 64.2203 171.468 63.6244 171.203 63.0286C170.807 62.2341 170.278 61.3072 170.08 60.2479L170.608 60.1155C170.807 61.1086 171.269 62.0355 171.666 62.7637C172.063 63.5582 172.393 64.1541 172.195 64.6175C171.931 65.412 170.807 65.4782 170.807 65.4782Z" fill="#DB614D"/>
<path d="M178.607 54.8852C168.956 50.6479 159.834 59.3872 159.834 59.3872C159.834 59.3872 158.776 52.3031 160.627 50.6479C161.09 50.1845 161.619 49.8535 162.147 49.5224C166.444 46.808 172.129 46.8742 174.707 47.8011C175.236 47.9997 175.632 48.1983 175.897 48.4631C177.417 50.0521 178.607 54.8852 178.607 54.8852Z" fill="#CE364C"/>
<path d="M177.417 53.2962C177.417 53.2962 169.286 51.7072 161.751 56.7389C161.751 56.7389 161.288 52.1707 162.147 49.5224C166.444 46.808 172.129 46.8742 174.707 47.8011C176.227 49.5224 177.417 53.2962 177.417 53.2962Z" fill="#CFD8DC"/>
<path d="M160.627 58.5927C160.627 58.5927 161.883 53.0976 163.668 51.5748C166.576 48.9928 174.641 48.1321 178.937 49.6548C183.234 51.1776 178.937 55.8783 178.937 55.8783C178.937 55.8783 172.129 50.979 160.627 58.5927Z" fill="#A02E44"/>
<path d="M173.186 94.9401C173.186 94.9401 176.492 100.104 182.176 103.15C182.176 103.15 189.249 96.9925 198.437 97.5221C198.437 97.5221 190.836 111.227 184.291 112.75C180.854 113.544 168.427 105.334 168.427 105.334C168.427 105.334 170.873 96.6614 173.186 94.9401Z" fill="#FF8B66"/>
<path d="M160.958 85.6049C163.998 80.6394 171.005 87.9884 173.385 93.2187C175.764 98.449 177.483 99.5745 177.483 99.5745C177.483 99.5745 170.476 102.488 170.542 107.784C170.542 107.784 154.281 96.4628 160.958 85.6049Z" fill="#ADBEC4"/>
<path d="M182.11 100.899C182.11 100.899 186.407 96.7276 200.42 91.2325L198.636 85.5387C200.222 83.4201 203.197 83.4201 203.197 83.4201C203.197 83.4201 210.402 93.6159 209.146 96.5952C208.353 98.5152 193.347 100.501 182.11 100.899Z" fill="#EF6E4B"/>
<path d="M197.512 92.6228C197.512 92.6228 197.644 92.027 198.173 91.2987C198.702 90.5704 198.569 89.2463 198.768 88.849C198.966 88.4518 200.09 86.7304 200.817 86.3994C201.544 86.0684 202.536 85.5387 202.734 86.4656C202.932 87.3925 201.412 87.1277 200.751 88.4518C200.751 88.4518 202.271 87.9884 203.395 88.2532C204.585 88.518 204.915 89.6435 203.461 89.5773C202.271 89.5773 200.817 90.3718 200.817 90.3718C200.817 90.3718 202.337 90.5704 202.073 91.2987C201.61 92.2256 199.759 91.6297 197.512 92.6228Z" fill="#FF8B66"/>
<path d="M93.7322 111.756C94.9881 115.001 100.144 120.496 100.144 120.496C100.144 120.496 112.703 112.948 118.454 116.126C124.271 119.304 128.832 121.224 132.6 119.834C136.368 118.443 120.239 89.1139 120.239 89.1139L99.3508 81.1029C99.3508 81.1029 98.8881 86.3994 96.5085 87.3263C94.1288 88.2532 91.5508 96.9925 91.7491 98.6476C91.9474 100.369 93.7322 111.756 93.7322 111.756Z" fill="#3E6575"/>
<path d="M117.264 120.628C117.264 120.628 111.91 131.221 100.739 144.727C100.739 144.727 99.6152 160.815 70.2 186.173L67.0932 183.723C67.0932 183.723 84.6102 156.247 88.1135 147.839C91.6169 139.431 86.1966 131.685 102.259 110.432L117.264 120.628Z" fill="#EF6E4B"/>
<path d="M100.078 101.958C95.4508 110.83 93.8644 122.217 93.8644 122.217L91.7491 127.58C91.7491 127.58 99.2186 131.618 107.878 133.075L111.315 123.872L100.078 101.958Z" fill="#662C33"/>
<path d="M124.271 119.834C124.271 119.834 126.585 131.486 126.188 148.965C126.188 148.965 135.244 162.338 127.775 200.407H123.875C123.875 200.407 120.702 167.966 118.256 159.227C115.81 150.421 106.754 147.773 106.292 121.025L124.271 119.834Z" fill="#FF8B66"/>
<path d="M126.585 132.281C126.585 132.281 119.247 133.605 106.225 133.009L106.027 131.552L105.961 131.155L104.639 121.687C104.639 121.687 103.383 120.165 102.127 117.649C101.995 117.384 101.797 117.053 101.664 116.722C99.9458 113.014 98.3593 107.585 100.078 101.958L102.788 102.09H103.185L112.373 102.488H112.769L115.81 102.62H116.273L118.256 102.686C118.256 102.686 128.171 111.624 126.386 128.176L126.519 130.493V130.89L126.585 132.281Z" fill="#8B383E"/>
<path d="M103.185 102.09C102.92 102.819 101.202 108.446 102.061 117.649C101.929 117.384 101.73 117.053 101.598 116.722C100.937 108.314 102.458 103.083 102.788 102.024C102.854 101.892 102.854 101.826 102.854 101.826L103.185 101.958C103.251 102.024 103.251 102.024 103.185 102.09Z" fill="#662C33"/>
<path d="M126.519 130.956C123.941 131.618 119.512 131.817 115.281 131.817C111.514 131.817 107.944 131.685 106.027 131.552L105.961 131.155C109.266 131.287 117.925 131.685 123.544 131.023L123.214 125.13C123.28 118.245 121.23 112.352 119.181 108.248C114.092 107.321 112.703 103.547 112.373 102.488C112.307 102.289 112.307 102.223 112.307 102.223L112.637 102.157C112.637 102.157 112.637 102.289 112.703 102.488C113.034 103.613 114.422 106.857 118.917 107.784C117.529 105.136 116.273 103.282 115.744 102.62C115.612 102.421 115.48 102.289 115.48 102.289L115.744 102.024C115.744 102.024 115.942 102.223 116.207 102.62C117.925 104.937 123.676 113.676 123.478 125.064L123.808 130.956C124.8 130.824 125.659 130.692 126.386 130.493L126.519 130.956Z" fill="#662C33"/>
<path d="M107.746 62.1017C104.837 60.5127 83.7508 68.7885 83.7508 68.7885C83.7508 68.7885 80.6441 74.3499 82.561 76.5347C84.478 78.7195 91.4186 77.7264 93.4678 76.5347C95.583 75.3429 101.136 74.4161 101.136 74.4161L107.746 62.1017Z" fill="#8BBDDB"/>
<path d="M126.32 44.4907C126.32 44.4907 130.683 46.1459 132.269 51.1776C133.856 56.2093 129.097 68.9209 130.749 74.7471C132.402 80.5733 132.137 91.6297 126.981 93.947C121.825 96.2642 111.315 92.0932 109.068 85.7374C106.82 79.3815 107.812 55.2162 112.108 47.0066C116.537 38.8632 125.329 42.968 126.32 44.4907Z" fill="#F24052"/>
<path d="M121.363 66.1403C122.486 67.3982 125.461 65.1472 125.461 65.1472C125.461 65.1472 125.395 76.0712 122.222 76.9319C119.049 77.7926 110.919 68.3251 111.249 65.743C111.58 63.2272 118.785 63.4258 121.363 66.1403Z" fill="#8BBDDB"/>
<path d="M109.134 63.4258C109.134 63.4258 112.373 66.1402 117.925 67.4644C123.544 68.7885 126.585 66.1402 129.427 69.7154C133.724 75.1443 126.717 85.1415 123.081 90.3056C121.693 92.2256 118.785 97.5883 118.256 102.752C118.256 102.752 108.539 105.599 100.144 101.892L99.5491 89.9746C99.483 90.0408 94.1949 73.9526 109.134 63.4258Z" fill="#0E3944"/>
<path d="M119.181 75.0119C119.181 75.0119 123.61 64.4189 124.932 63.7568C126.188 63.0948 129.493 64.6837 130.154 66.1403C130.815 67.5968 130.154 70.7747 130.154 70.7747C130.154 70.7747 126.585 66.8023 119.181 75.0119Z" fill="#8BBDDB"/>
<path d="M140.4 119.834C138.351 124.005 133.459 125.13 133.459 125.13C133.459 125.13 133.063 124.534 132.468 123.541C132.402 123.409 132.336 123.343 132.269 123.21C128.369 116.854 116.471 96.6614 116.669 86.0684C116.934 73.4892 125.13 66.6037 125.13 66.6037C129.295 67.5968 130.617 68.7223 130.617 68.7223C130.617 68.7223 132.005 75.8726 130.749 84.4794C129.493 93.0863 127.114 95.3373 128.303 95.9994C129.493 96.6614 128.303 97.9194 128.303 97.9194C128.303 97.9194 135.178 107.585 136.5 110.565C137.359 112.551 138.747 115.861 139.673 117.914C139.739 118.046 139.805 118.179 139.871 118.311C140.136 119.238 140.4 119.834 140.4 119.834Z" fill="#6097B2"/>
<path d="M128.436 68.7223C128.436 68.7223 123.478 72.3636 126.386 77.9912L140.069 92.2256C132.534 100.237 131.807 103.547 126.386 107.254L128.436 110.432C128.436 110.432 147.473 95.8007 147.539 92.2256C147.473 90.7028 135.839 72.2312 128.436 68.7223Z" fill="#FF8B66"/>
<path d="M126.056 107.254C126.056 107.254 123.412 107.519 121.825 107.983C120.173 108.38 117.992 108.777 117.925 109.174C117.859 109.505 121.561 109.174 121.561 109.174C121.561 109.174 118.52 110.432 118.454 110.896C118.388 111.359 122.288 110.565 122.288 110.565C122.288 110.565 119.842 112.088 119.975 112.485C120.107 112.882 123.147 111.889 123.147 111.889C123.147 111.889 122.553 113.345 122.024 114.008C122.024 114.008 122.619 114.339 123.808 113.014C124.998 111.69 126.915 112.088 128.436 110.962C129.89 109.638 127.444 107.056 126.056 107.254Z" fill="#FF8B66"/>
<path d="M112.042 65.2134C112.042 65.2134 108.275 67.663 105.895 73.5554C103.515 79.4477 96.0458 90.5042 94.261 93.3511C92.4763 96.198 93.7322 111.757 93.7322 111.757C93.7322 111.757 91.5508 102.355 90.5593 98.6476C89.5678 94.9401 93.7322 85.8698 94.3271 85.4063C94.922 84.9429 98.161 85.8036 97.5 82.096C96.839 78.3884 105.432 62.4989 107.68 62.1017C107.746 62.1017 111.381 62.7637 112.042 65.2134Z" fill="#6097B2"/>
<path d="M100.408 66.0078C100.342 66.1402 100.276 66.2727 100.21 66.4051C99.3508 67.663 97.7644 68.5899 97.7644 68.5899C97.7644 68.5899 94.922 72.6285 94.8559 73.0919C94.8559 73.4892 89.8983 77.0643 87.6508 76.9981C87.3203 76.9981 87.122 76.9319 86.9237 76.7333C85.6017 75.4754 91.3525 65.1471 92.6085 62.8961C92.6746 62.7637 92.7407 62.6313 92.8068 62.5651C92.8068 62.4989 92.8729 62.4989 92.8729 62.4989C92.8729 62.4989 91.8813 58.7251 96.1119 59.4534C99.6152 60.0492 100.342 62.8299 100.673 64.6837C100.739 65.0809 100.673 65.5444 100.408 66.0078Z" fill="#6097B2"/>
<path d="M85.6678 69.914C88.5763 66.0741 98.822 58.6589 104.176 56.4741L105.498 58.99C105.498 58.99 95.1203 68.1265 92.6746 72.0326C90.2288 75.9388 87.1881 77.594 84.3457 76.2698C81.4373 75.0119 85.0729 70.7085 85.6678 69.914Z" fill="#FF8B66"/>
<path d="M99.4169 65.2133L98.8881 65.8754L98.6237 66.2064L97.6983 67.2657C97.6983 67.2657 95.3847 70.0464 95.5169 71.1719C95.583 71.9664 91.1542 75.5416 87.7169 77.0643C86.3288 77.6602 85.0729 77.925 84.3458 77.5277C81.8339 76.0712 82.4288 71.7678 83.8169 68.8547C85.0729 66.2727 90.4932 63.0285 91.8813 62.1679C92.0797 62.0354 92.1458 61.9692 92.2119 61.9692L92.7407 59.9168C92.7407 59.9168 94.6576 58.7913 96.1119 59.4534C96.1119 59.4534 92.8068 59.5858 93.3356 60.9099C93.9305 62.1016 98.4915 65.1471 99.4169 65.2133Z" fill="#8BBDDB"/>
<path d="M111.381 54.6203C108.076 56.0107 108.539 58.99 105.498 58.99C103.581 58.99 103.383 56.8052 103.383 56.8052C104.242 54.9514 104.771 51.8397 104.903 50.3169C105.036 48.7942 105.498 49.39 105.498 49.39C105.498 49.2576 105.498 49.1252 105.498 48.9928C105.432 47.9997 105.3 47.2714 105.961 47.6687C106.688 48.1321 106.953 50.979 106.953 50.979C107.547 46.808 106.622 46.2121 107.349 46.5432C108.341 47.0728 108.341 50.7142 108.341 50.8466C109.134 48.3969 108.936 47.0728 109.464 47.6025C109.993 48.1321 109.2 52.5679 108.869 54.2231C108.803 54.6203 108.737 54.819 108.737 54.819C111.381 53.561 111.381 54.6203 111.381 54.6203Z" fill="#FF8B66"/>
<path d="M108.869 54.2893C108.803 54.6865 108.737 54.8852 108.737 54.8852C108.737 54.8852 107.547 54.7527 106.622 56.0769C106.622 56.0769 106.886 54.2893 108.869 54.2893Z" fill="#EF6E4B"/>
<path d="M105.697 52.3693C105.697 52.0383 105.895 49.9859 105.498 49.39C105.498 49.2576 105.498 49.1252 105.498 48.9928C106.225 49.1914 105.763 51.9721 105.697 52.3693Z" fill="#EF6E4B"/>
<path d="M107.746 69.914C107.746 69.914 109.993 63.823 110.72 62.4327C111.447 61.0424 115.149 61.3072 117.992 61.8368C120.834 62.3665 121.363 66.1403 121.363 66.1403C121.363 66.1403 112.769 62.1017 107.746 69.914Z" fill="#8BBDDB"/>
<path d="M122.222 57.9306C122.222 57.9306 119.512 62.8961 119.578 68.4575C119.578 68.4575 115.215 71.4368 113.629 67.7292C113.629 67.7292 115.281 62.8299 114.488 56.2755C113.959 51.7734 122.222 57.9306 122.222 57.9306Z" fill="#EF6E4B"/>
<path d="M113.629 51.0452C113.629 51.0452 112.836 48.1983 111.381 50.1845C109.729 52.5017 111.381 54.7527 112.307 54.2231C113.166 53.6934 113.629 51.0452 113.629 51.0452Z" fill="#FF8B66"/>
<path d="M126.32 58.3279C126.32 58.3279 129.163 57.5334 128.171 59.7844C127.047 62.4327 124.271 62.1017 124.271 61.1086C124.271 60.1155 126.32 58.3279 126.32 58.3279Z" fill="#FF8B66"/>
<path d="M114.819 63.492C110.786 61.241 109.993 57.2686 114.422 49.3238C116.736 45.219 120.239 43.8949 124.734 46.4107C129.295 48.9928 129.758 52.5679 127.444 56.6727C122.685 65.2133 118.983 65.8092 114.819 63.492Z" fill="#FF8B66"/>
<path d="M123.249 59.2144C123.8 59.4097 124.375 59.2047 124.533 58.7566C124.691 58.3085 124.373 57.7869 123.823 57.5917C123.272 57.3965 122.697 57.6015 122.539 58.0496C122.381 58.4977 122.699 59.0192 123.249 59.2144Z" fill="#DB614D"/>
<path d="M114.733 54.425C115.222 54.7446 115.829 54.6809 116.088 54.2827C116.347 53.8846 116.161 53.3028 115.672 52.9831C115.182 52.6635 114.576 52.7272 114.316 53.1254C114.057 53.5235 114.243 54.1054 114.733 54.425Z" fill="#DB614D"/>
<path d="M125.131 53.6272C124.998 53.6272 124.932 53.561 124.932 53.4286C124.734 52.5017 123.676 51.9721 123.676 51.9721C123.544 51.9059 123.544 51.7734 123.61 51.641C123.676 51.5086 123.808 51.5086 123.941 51.5748C124.007 51.5748 125.13 52.2369 125.395 53.2962C125.395 53.4286 125.329 53.561 125.131 53.6272Z" fill="#1A4850"/>
<path d="M119.578 49.6548C119.512 49.6548 119.512 49.6548 119.446 49.5886C119.446 49.5886 118.454 48.9928 117.595 49.2576C117.463 49.3238 117.33 49.2576 117.33 49.1252C117.264 48.9928 117.33 48.8604 117.463 48.8604C118.52 48.5293 119.644 49.1914 119.71 49.1914C119.842 49.2576 119.842 49.39 119.776 49.5224C119.71 49.5886 119.644 49.6548 119.578 49.6548Z" fill="#1A4850"/>
<path d="M122.444 56.1523C122.73 56.3138 123.195 56.0314 123.481 55.5216C123.768 55.0118 123.768 54.4677 123.482 54.3062C123.196 54.1447 122.731 54.4271 122.445 54.9369C122.158 55.4467 122.158 55.9909 122.444 56.1523Z" fill="#1A4850"/>
<path d="M116.749 53.0947C117.036 53.2562 117.5 52.9739 117.787 52.4641C118.073 51.9544 118.074 51.4103 117.787 51.2488C117.501 51.0873 117.037 51.3696 116.75 51.8794C116.463 52.3891 116.463 52.9332 116.749 53.0947Z" fill="#1A4850"/>
<path d="M115.81 57.6658C115.81 57.6658 118.124 59.4534 119.842 59.5196C119.842 59.5196 118.058 60.9762 116.802 60.0493C115.48 59.0562 115.81 57.6658 115.81 57.6658Z" fill="#1A4850"/>
<path d="M122.222 54.4879C122.222 54.4879 123.28 53.4286 123.742 53.8259C124.205 54.1569 123.941 55.481 123.941 55.481H124.866L124.073 55.15C124.073 55.15 124.337 53.8258 123.875 53.561C123.214 53.23 122.222 54.4879 122.222 54.4879Z" fill="#1A4850"/>
<path d="M118.19 52.4355C118.19 52.4355 118.52 50.979 117.992 50.7803C117.463 50.5817 116.471 51.4424 116.471 51.4424L115.942 50.6479L116.603 51.1776C116.603 51.1776 117.595 50.2507 118.058 50.5817C118.851 50.9128 118.19 52.4355 118.19 52.4355Z" fill="#1A4850"/>
<path d="M125.858 48.1321C125.858 48.1321 124.403 46.0797 122.42 47.7348C120.437 49.3238 115.876 51.9059 113.695 51.0452C111.447 50.1845 118.586 40.717 124.734 43.4976C130.881 46.2783 130.353 55.3486 127.775 58.1955C125.197 61.0423 126.453 58.3941 126.453 58.3941C126.453 58.3941 126.651 54.2893 127.51 51.641C128.237 48.8604 125.858 48.1321 125.858 48.1321Z" fill="#F24052"/>
<path d="M118.983 56.7389C118.851 56.7389 118.785 56.7389 118.653 56.6727L118.785 56.2093C119.181 56.3417 119.38 56.1431 119.512 55.9445C119.644 55.6796 119.644 55.4148 119.512 55.2824C119.446 55.2162 119.314 55.2162 119.181 55.2824L118.917 54.819C119.446 54.5541 119.71 54.7527 119.842 54.8852C120.107 55.15 120.173 55.7458 119.908 56.1431C119.71 56.5403 119.38 56.7389 118.983 56.7389Z" fill="#DB614D"/>
<path d="M148.663 91.6297C148.398 95.2049 139.607 106.791 138.153 107.188C137.756 107.321 137.359 107.519 137.029 107.784C136.897 107.917 136.698 107.983 136.566 108.115C135.707 108.777 135.112 109.572 135.112 109.572C132.534 109.373 125.329 106.063 127.642 105.334C127.775 105.268 127.907 105.202 128.105 105.07C128.171 105.003 128.303 104.937 128.436 104.805C131.146 102.488 136.5 93.2187 136.5 92.4904C136.5 91.696 137.425 91.5635 137.425 91.5635C137.425 91.5635 132.402 84.2146 129.493 83.2877C126.585 82.4271 125.131 78.8519 125.131 78.8519C122.288 66.6699 130.617 68.5899 130.617 68.5899C136.764 72.4299 148.927 88.0546 148.663 91.6297Z" fill="#8BBDDB"/>
<path d="M137.029 107.784C136.897 107.917 136.698 107.983 136.566 108.115C132.6 107.85 129.295 105.93 128.105 105.07C128.171 105.003 128.303 104.937 128.436 104.805C129.692 105.732 133.063 107.652 137.029 107.784Z" fill="#3E6575"/>
<path d="M100.408 66.0078C100.342 66.1403 100.276 66.2727 100.21 66.4051C99.6153 66.4051 99.0864 66.3389 98.6237 66.2065C96.0458 65.6768 93.9966 64.2203 92.6746 62.9623C92.3441 62.6975 92.0797 62.3665 91.8813 62.1017C92.0797 61.9693 92.1458 61.903 92.2119 61.903C92.4102 62.1017 92.6085 62.3665 92.8729 62.5651C94.1949 63.823 96.2441 65.3458 98.8881 65.8092C99.3508 65.9416 99.8796 66.0078 100.408 66.0078Z" fill="#3E6575"/>
<path d="M139.805 118.377C138.615 120.43 136.368 122.879 132.468 123.541C132.402 123.409 132.336 123.343 132.269 123.21C136.302 122.614 138.483 119.966 139.673 117.98C139.673 118.112 139.739 118.245 139.805 118.377Z" fill="#3E6575"/>
<path d="M72.9763 185.246C72.9763 185.246 72.0508 186.173 71.1254 187.828C70.2 189.483 71.1915 191.006 66.6305 194.846C66.6305 194.846 57.3102 189.417 53.0797 182.333C53.0797 182.333 53.1458 180.346 55.1949 179.883C56.3186 179.618 59.2932 181.075 62.2017 181.604C62.5983 181.671 62.9949 181.737 63.4576 181.803C63.9864 181.869 64.4491 181.869 64.9119 181.803C65.3746 181.737 65.7712 181.671 66.1678 181.472C67.1593 181.075 67.9525 180.28 68.3491 178.89C68.3491 178.89 70.7949 180.28 69.1424 182.664C69.1424 182.664 72.0508 181.406 72.9763 185.246Z" fill="#CFD8DC"/>
<path d="M66.6305 194.846C66.6305 194.846 57.3102 189.417 53.0797 182.333C53.0797 182.333 54.6661 182.002 55.922 184.319C57.2441 186.702 67.3576 191.999 66.6305 194.846Z" fill="#ADBEC4"/>
<path d="M66.6305 183.855C65.9034 185.047 65.9034 182.862 64.9119 181.803C65.3746 181.737 65.7712 181.671 66.1678 181.472C66.6305 181.935 67.2254 182.862 66.6305 183.855Z" fill="#ADBEC4"/>
<path d="M63.722 183.922C62.9288 184.65 62.6644 182.73 62.2017 181.671C62.5983 181.737 62.9949 181.803 63.4576 181.869C63.8542 182.399 64.3169 183.326 63.722 183.922Z" fill="#ADBEC4"/>
<path d="M130.286 209.477H117.132C117.132 209.477 116.603 207.624 117.132 205.637C117.397 204.777 118.719 203.916 119.975 202.79C120.305 202.459 120.636 202.128 120.966 201.797C121.23 201.532 121.429 201.201 121.627 200.804C121.892 200.407 122.09 199.944 122.156 199.414C122.354 198.421 122.288 197.229 121.693 195.839C121.693 195.839 126.188 194.912 127.775 197.361C127.775 197.361 127.907 196.236 129.361 196.964C129.361 196.964 129.163 199.215 129.427 201.135C129.758 203.055 131.542 203.585 130.286 209.477Z" fill="#CFD8DC"/>
<path d="M126.849 201.532C126.717 201.665 126.585 201.731 126.386 201.731C126.254 201.731 126.122 201.665 125.99 201.599C125.329 201.069 123.808 200.208 121.627 200.804C121.892 200.407 122.09 199.944 122.156 199.414C123.015 199.083 124.668 198.884 126.717 200.672C127.047 200.87 127.114 201.268 126.849 201.532Z" fill="#ADBEC4"/>
<path d="M125.792 203.717L125.725 203.85C125.527 204.115 125.197 204.181 124.932 204.048C124.007 203.519 122.024 202.526 120.041 202.79C120.371 202.459 120.702 202.128 121.032 201.797C122.024 201.599 123.875 201.466 125.659 202.923C125.858 203.121 125.924 203.452 125.792 203.717Z" fill="#ADBEC4"/>
</g>
<defs>
<clipPath id="clip0_395_408">
<rect width="312" height="211" fill="white"/>
</clipPath>
</defs>
</svg>
