<svg width="18" height="18" viewBox="0 0 18 18" fill="none" xmlns="http://www.w3.org/2000/svg">
<g clip-path="url(#clip0_211_394)">
<path d="M12.024 9.16526C12.0763 9.21751 12.1179 9.27958 12.1463 9.34792C12.1746 9.41626 12.1892 9.48952 12.1892 9.56351C12.1892 9.63749 12.1746 9.71075 12.1463 9.77909C12.1179 9.84743 12.0763 9.9095 12.024 9.96176L8.64896 13.3368C8.59671 13.3891 8.53464 13.4307 8.4663 13.4591C8.39796 13.4874 8.3247 13.502 8.25071 13.502C8.17672 13.502 8.10346 13.4874 8.03512 13.4591C7.96678 13.4307 7.90471 13.3891 7.85246 13.3368L6.16496 11.6493C6.11266 11.597 6.07118 11.5349 6.04287 11.4665C6.01457 11.3982 6 11.325 6 11.251C6 11.177 6.01457 11.1038 6.04287 11.0355C6.07118 10.9671 6.11266 10.9051 6.16496 10.8528C6.27058 10.7471 6.41384 10.6878 6.56321 10.6878C6.63717 10.6878 6.71041 10.7024 6.77874 10.7307C6.84707 10.759 6.90916 10.8005 6.96146 10.8528L8.25071 12.1431L11.2275 9.16526C11.2797 9.11287 11.3418 9.07131 11.4101 9.04295C11.4785 9.0146 11.5517 9 11.6257 9C11.6997 9 11.773 9.0146 11.8413 9.04295C11.9096 9.07131 11.9717 9.11287 12.024 9.16526Z" fill="#676767"/>
<path d="M3.9375 0C4.08668 0 4.22976 0.0592632 4.33525 0.164752C4.44074 0.270242 4.5 0.413316 4.5 0.5625V1.125H13.5V0.5625C13.5 0.413316 13.5593 0.270242 13.6648 0.164752C13.7702 0.0592632 13.9133 0 14.0625 0C14.2117 0 14.3548 0.0592632 14.4602 0.164752C14.5657 0.270242 14.625 0.413316 14.625 0.5625V1.125H15.75C16.3467 1.125 16.919 1.36205 17.341 1.78401C17.7629 2.20597 18 2.77826 18 3.375V15.75C18 16.3467 17.7629 16.919 17.341 17.341C16.919 17.7629 16.3467 18 15.75 18H2.25C1.65326 18 1.08097 17.7629 0.65901 17.341C0.237053 16.919 0 16.3467 0 15.75V3.375C0 2.77826 0.237053 2.20597 0.65901 1.78401C1.08097 1.36205 1.65326 1.125 2.25 1.125H3.375V0.5625C3.375 0.413316 3.43426 0.270242 3.53975 0.164752C3.64524 0.0592632 3.78832 0 3.9375 0V0ZM2.25 2.25C1.95163 2.25 1.66548 2.36853 1.4545 2.5795C1.24353 2.79048 1.125 3.07663 1.125 3.375V15.75C1.125 16.0484 1.24353 16.3345 1.4545 16.5455C1.66548 16.7565 1.95163 16.875 2.25 16.875H15.75C16.0484 16.875 16.3345 16.7565 16.5455 16.5455C16.7565 16.3345 16.875 16.0484 16.875 15.75V3.375C16.875 3.07663 16.7565 2.79048 16.5455 2.5795C16.3345 2.36853 16.0484 2.25 15.75 2.25H2.25Z" fill="#676767"/>
<path d="M3 4.3125C3 4.16332 3.05926 4.02024 3.16475 3.91475C3.27024 3.80926 3.41332 3.75 3.5625 3.75H14.8125C14.9617 3.75 15.1048 3.80926 15.2102 3.91475C15.3157 4.02024 15.375 4.16332 15.375 4.3125V5.4375C15.375 5.58668 15.3157 5.72976 15.2102 5.83525C15.1048 5.94074 14.9617 6 14.8125 6H3.5625C3.41332 6 3.27024 5.94074 3.16475 5.83525C3.05926 5.72976 3 5.58668 3 5.4375V4.3125Z" fill="#676767"/>
</g>
<defs>
<clipPath id="clip0_211_394">
<rect width="18" height="18" fill="white"/>
</clipPath>
</defs>
</svg>
