<svg width="20" height="20" viewBox="0 0 20 20" fill="none" xmlns="http://www.w3.org/2000/svg">
<path d="M10 13.125C8.275 13.125 6.875 11.725 6.875 10C6.875 8.275 8.275 6.875 10 6.875C11.725 6.875 13.125 8.275 13.125 10C13.125 11.725 11.725 13.125 10 13.125ZM10 8.125C8.96667 8.125 8.125 8.96667 8.125 10C8.125 11.0333 8.96667 11.875 10 11.875C11.0333 11.875 11.875 11.0333 11.875 10C11.875 8.96667 11.0333 8.125 10 8.125Z" fill="#676767"/>
<path d="M12.675 18.4919C12.5 18.4919 12.325 18.4669 12.15 18.4253C11.6333 18.2836 11.2 17.9586 10.925 17.5003L10.825 17.3336C10.3333 16.4836 9.65829 16.4836 9.16663 17.3336L9.07496 17.4919C8.79996 17.9586 8.36663 18.2919 7.84996 18.4253C7.32496 18.5669 6.78329 18.4919 6.32496 18.2169L4.89163 17.3919C4.38329 17.1003 4.01663 16.6253 3.85829 16.0503C3.70829 15.4753 3.78329 14.8836 4.07496 14.3753C4.31663 13.9503 4.38329 13.5669 4.24163 13.3253C4.09996 13.0836 3.74163 12.9419 3.24996 12.9419C2.03329 12.9419 1.04163 11.9503 1.04163 10.7336V9.26693C1.04163 8.05026 2.03329 7.05859 3.24996 7.05859C3.74163 7.05859 4.09996 6.91693 4.24163 6.67526C4.38329 6.43359 4.32496 6.05026 4.07496 5.62526C3.78329 5.11693 3.70829 4.51693 3.85829 3.95026C4.00829 3.37526 4.37496 2.90026 4.89163 2.60859L6.33329 1.78359C7.27496 1.22526 8.51663 1.55026 9.08329 2.50859L9.18329 2.67526C9.67496 3.52526 10.35 3.52526 10.8416 2.67526L10.9333 2.51693C11.5 1.55026 12.7416 1.22526 13.6916 1.79193L15.125 2.61693C15.6333 2.90859 16 3.38359 16.1583 3.95859C16.3083 4.53359 16.2333 5.12526 15.9416 5.63359C15.7 6.05859 15.6333 6.44193 15.775 6.68359C15.9166 6.92526 16.275 7.06693 16.7666 7.06693C17.9833 7.06693 18.975 8.05859 18.975 9.27527V10.7419C18.975 11.9586 17.9833 12.9503 16.7666 12.9503C16.275 12.9503 15.9166 13.0919 15.775 13.3336C15.6333 13.5753 15.6916 13.9586 15.9416 14.3836C16.2333 14.8919 16.3166 15.4919 16.1583 16.0586C16.0083 16.6336 15.6416 17.1086 15.125 17.4003L13.6833 18.2253C13.3666 18.4003 13.025 18.4919 12.675 18.4919ZM9.99996 15.4086C10.7416 15.4086 11.4333 15.8753 11.9083 16.7003L12 16.8586C12.1 17.0336 12.2666 17.1586 12.4666 17.2086C12.6666 17.2586 12.8666 17.2336 13.0333 17.1336L14.475 16.3003C14.6916 16.1753 14.8583 15.9669 14.925 15.7169C14.9916 15.4669 14.9583 15.2086 14.8333 14.9919C14.3583 14.1753 14.3 13.3336 14.6666 12.6919C15.0333 12.0503 15.7916 11.6836 16.7416 11.6836C17.275 11.6836 17.7 11.2586 17.7 10.7253V9.2586C17.7 8.7336 17.275 8.30026 16.7416 8.30026C15.7916 8.30026 15.0333 7.93359 14.6666 7.29193C14.3 6.65026 14.3583 5.80859 14.8333 4.99193C14.9583 4.77526 14.9916 4.51693 14.925 4.26693C14.8583 4.01693 14.7 3.81693 14.4833 3.68359L13.0416 2.85859C12.6833 2.64193 12.2083 2.76693 11.9916 3.13359L11.9 3.29193C11.425 4.11693 10.7333 4.58359 9.99163 4.58359C9.24996 4.58359 8.55829 4.11693 8.08329 3.29193L7.99163 3.12526C7.78329 2.77526 7.31663 2.65026 6.95829 2.85859L5.51663 3.69193C5.29996 3.81693 5.13329 4.02526 5.06663 4.27526C4.99996 4.52526 5.03329 4.78359 5.15829 5.00026C5.63329 5.81693 5.69163 6.65859 5.32496 7.30026C4.95829 7.94193 4.19996 8.30859 3.24996 8.30859C2.71663 8.30859 2.29163 8.7336 2.29163 9.26693V10.7336C2.29163 11.2586 2.71663 11.6919 3.24996 11.6919C4.19996 11.6919 4.95829 12.0586 5.32496 12.7003C5.69163 13.3419 5.63329 14.1836 5.15829 15.0003C5.03329 15.2169 4.99996 15.4753 5.06663 15.7253C5.13329 15.9753 5.29163 16.1753 5.50829 16.3086L6.94996 17.1336C7.12496 17.2419 7.33329 17.2669 7.52496 17.2169C7.72496 17.1669 7.89163 17.0336 7.99996 16.8586L8.09163 16.7003C8.56663 15.8836 9.25829 15.4086 9.99996 15.4086Z" fill="#676767"/>
</svg>
